<svg version="1.1" id="Layer_1" xmlns="http://www.w3.org/2000/svg" xmlns:xlink="http://www.w3.org/1999/xlink" x="0px" y="0px"
	 width="100%" viewBox="0 0 116 115" enable-background="new 0 0 116 115" xml:space="preserve">
<path fill="#000000" opacity="1.000000" stroke="none" 
	d="
M1.000000,43.000000 
	C1.000000,28.666668 1.000000,14.833337 1.000000,1.000004 
	C39.666660,1.000003 78.333321,1.000003 116.999985,1.000001 
	C116.999992,39.333324 116.999992,77.666649 117.000000,115.999977 
	C78.333351,115.999985 39.666698,115.999985 1.000023,115.999992 
	C1.000000,91.833336 1.000000,67.666664 1.000000,43.000000 
M103.310776,87.149200 
	C103.885796,86.798592 104.460815,86.447983 105.810959,85.984924 
	C110.129074,81.706612 108.858696,76.265175 109.067757,70.599609 
	C109.008560,69.724174 108.949364,68.848732 108.987907,67.104401 
	C108.934013,65.067841 108.880119,63.031277 108.976631,60.070267 
	C108.932228,54.388245 108.887825,48.706226 108.996964,42.192741 
	C108.706451,40.114162 108.415932,38.035580 108.004387,35.351940 
	C107.708000,34.883568 107.411613,34.415195 106.993721,33.464893 
	C106.993721,33.464893 106.835106,32.993874 106.982346,32.308346 
	C106.014595,30.860708 105.046837,29.413071 103.829727,27.315567 
	C101.217461,25.932247 98.605202,24.548929 95.348549,22.855406 
	C93.610107,21.545937 91.871674,20.236467 89.826187,18.281761 
	C82.874420,14.233316 75.922653,10.184872 68.304413,5.830043 
	C66.549820,5.285783 64.795227,4.741523 62.352486,4.054652 
	C61.888363,4.099411 61.424236,4.144171 60.097740,4.020421 
	C56.695045,4.665009 53.292355,5.309597 49.197624,6.005104 
	C47.759243,6.988964 46.320862,7.972823 44.265213,8.998793 
	C43.808212,9.316018 43.351208,9.633244 42.201599,10.003480 
	C40.762184,10.987988 39.322769,11.972497 37.265972,13.001660 
	C36.807781,13.317618 36.349590,13.633576 35.234165,14.217815 
	C31.469650,16.439583 27.705135,18.661352 23.227867,21.008184 
	C19.458416,24.325922 15.688963,27.643658 11.246004,31.310843 
	C7.734871,38.608227 9.399807,46.363831 9.040977,54.799801 
	C9.092667,56.524040 9.144357,58.248280 9.020135,60.840614 
	C9.056034,62.904293 9.091933,64.967972 8.983773,67.919563 
	C9.064276,71.153252 9.144777,74.386948 9.098960,78.427139 
	C9.774186,84.510468 12.587480,89.473763 17.689100,92.731239 
	C22.941896,96.085236 28.540808,98.897171 34.589531,102.287941 
	C41.398354,105.843201 48.207180,109.398468 55.920723,112.973587 
	C63.644073,114.301949 69.854996,110.569389 76.746819,106.758957 
	C78.866608,105.188965 80.986397,103.618973 83.809189,101.976898 
	C86.540962,99.624489 89.272736,97.272072 92.765671,94.903809 
	C93.520622,94.888184 94.275566,94.872559 95.768349,94.951584 
	C99.485161,93.974525 102.056847,91.924309 102.730583,87.724281 
	C102.730583,87.724281 102.829651,87.436935 103.310776,87.149200 
z"/>
<path fill="#1E1E1E" opacity="1.000000" stroke="none" 
	d="
M33.988274,101.946289 
	C28.540808,98.897171 22.941896,96.085236 17.689100,92.731239 
	C12.587480,89.473763 9.774186,84.510468 9.546885,77.962753 
	C11.008091,77.644524 12.021373,77.790695 12.950737,78.335602 
	C14.434985,82.281921 16.003151,85.829491 17.571318,89.377060 
	C18.404329,89.140656 19.237341,88.904251 20.070353,88.667847 
	C19.874022,87.043877 20.233833,84.975365 19.365259,83.888748 
	C17.572563,81.646011 15.124849,79.926872 12.951306,77.587791 
	C14.299655,73.788002 15.643293,70.392754 17.288380,66.797348 
	C17.811291,65.437515 18.032755,64.277832 18.589972,63.151428 
	C20.297520,62.226265 21.669315,61.267830 23.365238,60.169693 
	C26.789949,58.395863 29.890530,56.761726 33.174988,55.344479 
	C33.869503,56.107426 34.380138,56.653484 35.066761,57.504303 
	C36.280106,58.746941 37.317459,59.684826 38.098167,61.012665 
	C37.604176,62.287609 37.366837,63.172604 36.899170,64.342712 
	C33.752735,69.706787 34.254959,72.379395 40.062176,73.822845 
	C48.042191,75.806381 56.337357,76.521988 64.895493,77.836349 
	C67.866211,77.925659 70.438927,77.959488 73.259239,78.008675 
	C73.506836,78.024040 74.002266,77.997498 74.024826,78.316025 
	C75.690453,79.391327 77.333527,80.148094 79.201920,81.171074 
	C80.545296,81.648842 81.663353,81.860413 82.804779,82.512985 
	C82.914101,85.602051 83.000053,88.250107 83.013977,91.267227 
	C80.920128,93.144318 78.898308,94.652344 76.929428,96.130386 
	C76.982376,96.100403 76.878029,96.145012 76.925568,95.720039 
	C76.741379,93.117432 78.193001,90.010429 73.796051,89.733871 
	C72.742836,90.388885 71.091446,91.544632 71.271851,92.181290 
	C72.682236,97.158295 74.444321,102.035637 76.097855,106.943741 
	C69.854996,110.569389 63.644073,114.301949 55.461754,112.581161 
	C54.339172,110.794235 53.566868,109.439331 53.040607,107.994789 
	C52.438980,106.343353 51.311436,104.409958 51.707687,102.950836 
	C53.388622,96.761124 53.564186,96.808800 46.598213,97.644943 
	C47.080814,93.613289 44.638367,92.924644 41.997425,94.657990 
	C39.017052,96.614105 36.632153,99.477486 33.988274,101.946289 
z"/>
<path fill="#C9C9C9" opacity="1.000000" stroke="none" 
	d="
M108.125412,35.956997 
	C108.415932,38.035580 108.706451,40.114162 108.501549,42.598515 
	C105.103264,42.663757 103.771652,43.776649 103.945229,46.867157 
	C104.153580,50.576866 104.042709,54.304501 103.773926,58.300243 
	C103.312103,61.389324 103.146431,64.202538 102.638855,67.047943 
	C101.198807,67.388245 100.100662,67.696350 98.995789,67.668350 
	C98.652168,66.555229 98.315262,65.778221 97.929672,64.615822 
	C98.027969,57.986576 98.019287,51.733635 98.382751,45.502399 
	C98.587265,41.995941 98.852028,41.997490 94.580597,41.246246 
	C94.153595,41.329235 93.990250,41.395130 93.731506,41.136841 
	C93.609512,40.588955 93.582909,40.365246 93.743912,39.836105 
	C94.188721,37.065281 94.445923,34.599888 95.079819,32.108833 
	C98.366264,33.905636 101.276016,35.728096 103.118423,36.882050 
	C104.608536,35.323181 105.721825,34.158527 106.835106,32.993874 
	C106.835106,32.993874 106.993721,33.464893 106.829277,33.886833 
	C107.151695,34.858185 107.638557,35.407593 108.125412,35.956997 
z"/>
<path fill="#D0D0D0" opacity="1.000000" stroke="none" 
	d="
M97.978363,65.001205 
	C98.315262,65.778221 98.652168,66.555229 98.847740,67.998657 
	C99.102676,69.754692 99.500618,71.784996 99.894958,71.784286 
	C102.900108,71.778938 105.904541,71.377075 108.909203,71.098656 
	C108.858696,76.265175 110.129074,81.706612 105.198532,85.781891 
	C104.000618,86.198212 103.415138,86.817574 102.829651,87.436935 
	C102.829651,87.436935 102.730583,87.724281 102.261253,87.616104 
	C100.224747,88.323204 98.657570,89.138481 97.089142,89.601471 
	C96.934486,87.579376 99.005478,84.954041 95.178345,84.468170 
	C95.143913,83.048355 95.130684,82.013611 95.347824,80.758743 
	C95.433891,79.367622 95.289589,78.196640 95.153748,76.626427 
	C94.305443,72.137917 93.448677,68.048630 92.902191,64.135025 
	C94.071793,65.759590 94.931122,67.208481 95.981613,68.979675 
	C96.842575,67.264221 97.410469,66.132713 97.978363,65.001205 
z"/>
<path fill="#171717" opacity="1.000000" stroke="none" 
	d="
M34.288902,102.117119 
	C36.632153,99.477486 39.017052,96.614105 41.997425,94.657990 
	C44.638367,92.924644 47.080814,93.613289 46.598213,97.644943 
	C53.564186,96.808800 53.388622,96.761124 51.707687,102.950836 
	C51.311436,104.409958 52.438980,106.343353 53.040607,107.994789 
	C53.566868,109.439331 54.339172,110.794235 55.009392,112.571236 
	C48.207180,109.398468 41.398354,105.843201 34.288902,102.117119 
z"/>
<path fill="#C0C0C0" opacity="1.000000" stroke="none" 
	d="
M68.970886,6.136428 
	C75.922653,10.184872 82.874420,14.233316 89.710220,18.820087 
	C90.418259,21.901417 91.242264,24.444418 91.830353,26.993109 
	C91.594421,26.998796 91.122902,26.977772 90.789703,26.875475 
	C87.002350,22.125433 82.833672,18.181368 77.121078,16.854342 
	C73.208107,15.945366 69.028435,16.184484 65.038452,15.557036 
	C69.594765,13.543605 69.219589,9.813082 68.970886,6.136428 
z"/>
<path fill="#E5E5E5" opacity="1.000000" stroke="none" 
	d="
M49.889660,5.954185 
	C53.292355,5.309597 56.695045,4.665009 60.522163,4.517064 
	C60.661770,9.058070 60.376957,13.102434 59.907761,17.404057 
	C59.117741,18.755960 58.512104,19.850603 57.634724,21.011673 
	C56.252449,21.933510 55.141914,22.788918 54.026333,23.210869 
	C54.013428,20.622101 54.378342,18.374941 53.877243,16.341158 
	C53.491219,14.774398 52.016941,13.475767 51.018917,11.645915 
	C50.637405,9.474007 50.263531,7.714096 49.889660,5.954185 
z"/>
<path fill="#E8E8E8" opacity="1.000000" stroke="none" 
	d="
M49.543640,5.979645 
	C50.263531,7.714096 50.637405,9.474007 51.016376,12.096745 
	C51.014107,14.941759 51.152771,16.939926 50.938370,18.899462 
	C50.829556,19.894005 50.339005,21.280767 49.583740,21.697279 
	C45.831890,23.766344 40.577114,21.329807 39.261688,16.754173 
	C38.966591,15.327216 38.424973,14.142112 37.883354,12.957006 
	C39.322769,11.972497 40.762184,10.987988 42.813416,10.208733 
	C43.857475,13.084368 44.289726,15.754749 44.721977,18.425131 
	C46.775818,15.154711 49.151730,11.955744 44.882481,8.956683 
	C46.320862,7.972823 47.759243,6.988964 49.543640,5.979645 
z"/>
<path fill="#E0E0E0" opacity="1.000000" stroke="none" 
	d="
M9.241112,53.957996 
	C9.399807,46.363831 7.734871,38.608227 11.923746,31.168888 
	C13.409099,31.351429 14.216707,31.675926 15.001400,32.392548 
	C14.948565,33.825634 14.918648,34.866600 14.740767,36.289490 
	C14.398131,39.780041 14.203457,42.888657 13.985692,46.399979 
	C14.310432,48.867550 14.658264,50.932426 14.666271,53.036774 
	C13.238975,53.379330 12.151503,53.682404 10.760519,53.963947 
	C10.051709,53.947609 9.646411,53.952805 9.241112,53.957996 
z"/>
<path fill="#AEAEAE" opacity="1.000000" stroke="none" 
	d="
M76.422333,106.851349 
	C74.444321,102.035637 72.682236,97.158295 71.271851,92.181290 
	C71.091446,91.544632 72.742836,90.388885 73.769798,90.093513 
	C74.955322,92.523949 75.916672,94.334480 76.878029,96.145012 
	C76.878029,96.145012 76.982376,96.100403 77.083336,96.442375 
	C78.756378,97.730049 80.328461,98.675751 81.871262,99.903427 
	C82.263374,100.806580 82.684776,101.427773 83.106186,102.048981 
	C80.986397,103.618973 78.866608,105.188965 76.422333,106.851349 
z"/>
<path fill="#E5E5E5" opacity="1.000000" stroke="none" 
	d="
M104.070068,58.024376 
	C104.042709,54.304501 104.153580,50.576866 103.945229,46.867157 
	C103.771652,43.776649 105.103264,42.663757 108.424774,43.014244 
	C108.887825,48.706226 108.932228,54.388245 108.542038,60.531219 
	C106.761650,60.002907 105.415855,59.013641 104.070068,58.024376 
z"/>
<path fill="#C0C0C0" opacity="1.000000" stroke="none" 
	d="
M15.024317,32.000423 
	C14.216707,31.675926 13.409099,31.351429 12.260500,30.994164 
	C15.688963,27.643658 19.458416,24.325922 23.654491,21.259401 
	C25.378647,21.699680 26.676178,21.888742 27.974392,22.440180 
	C26.311611,24.872398 24.648144,26.942240 22.593868,29.008163 
	C19.810144,30.002972 17.417231,31.001698 15.024317,32.000423 
z"/>
<path fill="#E8E8E8" opacity="1.000000" stroke="none" 
	d="
M27.973709,22.077805 
	C26.676178,21.888742 25.378647,21.699680 24.010868,21.196869 
	C27.705135,18.661352 31.469650,16.439583 35.819374,14.259949 
	C36.934841,15.195851 37.465092,16.089621 37.853706,17.315403 
	C36.428013,23.436989 32.583237,23.597895 27.973709,22.077805 
z"/>
<path fill="#D0D0D0" opacity="1.000000" stroke="none" 
	d="
M106.908722,32.651108 
	C105.721825,34.158527 104.608536,35.323181 103.118423,36.882050 
	C101.276016,35.728096 98.366264,33.905636 94.750076,32.100613 
	C93.605774,31.436098 93.167915,30.754145 93.045807,30.137115 
	C96.934067,29.456505 100.506569,28.710972 104.079079,27.965435 
	C105.046837,29.413071 106.014595,30.860708 106.908722,32.651108 
M101.487938,33.561028 
	C101.487938,33.561028 101.445976,33.481083 101.487938,33.561028 
z"/>
<path fill="#D0D0D0" opacity="1.000000" stroke="none" 
	d="
M16.986931,66.997505 
	C15.643293,70.392754 14.299655,73.788002 12.985710,77.593590 
	C13.015404,78.003929 13.034656,77.936859 13.034656,77.936859 
	C12.021373,77.790695 11.008091,77.644524 9.610044,77.559494 
	C9.144777,74.386948 9.064276,71.153252 9.484566,67.447968 
	C11.997644,66.989670 14.009932,67.002968 16.263577,67.020828 
	C16.504934,67.025391 16.986931,66.997505 16.986931,66.997505 
z"/>
<path fill="#E5E5E5" opacity="1.000000" stroke="none" 
	d="
M68.637650,5.983235 
	C69.219589,9.813082 69.594765,13.543605 64.717819,15.584897 
	C63.901642,15.910250 63.476566,15.854415 63.034248,15.353658 
	C63.024876,11.338244 63.032753,7.767754 63.040630,4.197263 
	C64.795227,4.741523 66.549820,5.285783 68.637650,5.983235 
z"/>
<path fill="#C0C0C0" opacity="1.000000" stroke="none" 
	d="
M17.288380,66.797348 
	C16.986931,66.997505 16.504934,67.025391 16.224480,66.676445 
	C13.694700,64.209175 11.445374,62.090847 9.196047,59.972519 
	C9.144357,58.248280 9.092667,56.524040 9.141045,54.378899 
	C9.646411,53.952805 10.051709,53.947609 10.790075,54.339584 
	C11.920277,60.257523 15.376790,59.229275 18.954647,58.257591 
	C20.693407,60.413765 14.139796,60.932930 18.254219,63.118153 
	C18.032755,64.277832 17.811291,65.437515 17.288380,66.797348 
z"/>
<path fill="#C9C9C9" opacity="1.000000" stroke="none" 
	d="
M103.954407,27.640503 
	C100.506569,28.710972 96.934067,29.456505 92.791138,29.978041 
	C91.854782,28.828619 91.488846,27.903194 91.122902,26.977772 
	C91.122902,26.977772 91.594421,26.998796 92.210037,26.995836 
	C95.763817,27.274927 96.154007,25.448372 95.992935,23.165611 
	C98.605202,24.548929 101.217461,25.932247 103.954407,27.640503 
z"/>
<path fill="#E0E0E0" opacity="1.000000" stroke="none" 
	d="
M103.773918,58.300243 
	C105.415855,59.013641 106.761650,60.002907 108.466835,60.993439 
	C108.880119,63.031277 108.934013,65.067841 108.546753,67.584473 
	C106.397316,67.714951 104.689034,67.365349 102.980759,67.015755 
	C103.146431,64.202538 103.312103,61.389324 103.773918,58.300243 
z"/>
<path fill="#3B3B3B" opacity="1.000000" stroke="none" 
	d="
M83.457687,102.012939 
	C82.684776,101.427773 82.263374,100.806580 81.908554,99.473518 
	C82.973518,94.255653 85.759621,96.163734 87.453087,96.640221 
	C88.836021,95.625519 89.971764,94.792183 91.347549,94.016403 
	C91.901466,94.269646 92.040443,94.551552 92.004517,94.919662 
	C89.272736,97.272072 86.540962,99.624489 83.457687,102.012939 
z"/>
<path fill="#B8B8B8" opacity="1.000000" stroke="none" 
	d="
M102.638855,67.047943 
	C104.689034,67.365349 106.397316,67.714951 108.497879,68.018921 
	C108.949364,68.848732 109.008560,69.724174 108.988480,70.849136 
	C105.904541,71.377075 102.900108,71.778938 99.894958,71.784286 
	C99.500618,71.784996 99.102676,69.754692 98.854462,68.334763 
	C100.100662,67.696350 101.198807,67.388245 102.638855,67.047943 
z"/>
<path fill="#A1A1A1" opacity="1.000000" stroke="none" 
	d="
M92.385094,94.911743 
	C92.040443,94.551552 91.901466,94.269646 91.345367,93.689064 
	C91.060074,92.870995 91.017014,92.437813 91.126785,91.782875 
	C91.351456,91.396606 91.423294,91.232094 91.809715,90.983444 
	C93.149376,88.883957 94.174461,86.868607 95.199547,84.853256 
	C99.005478,84.954041 96.934486,87.579376 97.042953,89.950317 
	C96.342178,92.053291 95.686348,93.455116 95.030518,94.856934 
	C94.275566,94.872559 93.520622,94.888184 92.385094,94.911743 
z"/>
<path fill="#D0D0D0" opacity="1.000000" stroke="none" 
	d="
M95.670746,23.010509 
	C96.154007,25.448372 95.763817,27.274927 92.445961,26.990149 
	C91.242264,24.444418 90.418259,21.901417 89.863739,19.142704 
	C91.871674,20.236467 93.610107,21.545937 95.670746,23.010509 
z"/>
<path fill="#AAAAAA" opacity="1.000000" stroke="none" 
	d="
M9.108091,60.406567 
	C11.445374,62.090847 13.694700,64.209175 15.983123,66.671883 
	C14.009932,67.002968 11.997644,66.989670 9.556595,67.004013 
	C9.091933,64.967972 9.056034,62.904293 9.108091,60.406567 
z"/>
<path fill="#C0C0C0" opacity="1.000000" stroke="none" 
	d="
M62.696556,4.125958 
	C63.032753,7.767754 63.024876,11.338244 62.753250,15.522104 
	C61.690384,16.472582 60.891262,16.809690 60.092144,17.146797 
	C60.376957,13.102434 60.661770,9.058070 60.953346,4.601318 
	C61.424236,4.144171 61.888363,4.099411 62.696556,4.125958 
z"/>
<path fill="#E5E5E5" opacity="1.000000" stroke="none" 
	d="
M44.573845,8.977737 
	C49.151730,11.955744 46.775818,15.154711 44.721977,18.425131 
	C44.289726,15.754749 43.857475,13.084368 43.159718,10.182227 
	C43.351208,9.633244 43.808212,9.316018 44.573845,8.977737 
z"/>
<path fill="#C0C0C0" opacity="1.000000" stroke="none" 
	d="
M95.399429,94.904259 
	C95.686348,93.455116 96.342178,92.053291 97.044205,90.302612 
	C98.657570,89.138481 100.224747,88.323204 102.118309,87.667709 
	C102.056847,91.924309 99.485161,93.974525 95.399429,94.904259 
z"/>
<path fill="#E5E5E5" opacity="1.000000" stroke="none" 
	d="
M37.995342,16.983389 
	C37.465092,16.089621 36.934841,15.195851 36.147995,14.125809 
	C36.349590,13.633576 36.807781,13.317618 37.574661,12.979334 
	C38.424973,14.142112 38.966591,15.327216 39.006699,16.747337 
	C38.335243,16.982697 38.165291,16.983044 37.995342,16.983389 
z"/>
<path fill="#C0C0C0" opacity="1.000000" stroke="none" 
	d="
M103.070221,87.293076 
	C103.415138,86.817574 104.000618,86.198212 104.810974,85.838112 
	C104.460815,86.447983 103.885796,86.798592 103.070221,87.293076 
z"/>
<path fill="#D0D0D0" opacity="1.000000" stroke="none" 
	d="
M108.064903,35.654469 
	C107.638557,35.407593 107.151695,34.858185 106.890030,34.127800 
	C107.411613,34.415195 107.708000,34.883568 108.064903,35.654469 
z"/>
<path fill="#E8E8E8" opacity="1.000000" stroke="none" 
	d="
M32.991108,55.127590 
	C29.890530,56.761726 26.789949,58.395863 23.384777,59.757584 
	C23.029598,58.662033 22.979013,57.838905 22.950901,56.560974 
	C23.250570,48.389645 23.527765,40.673107 23.846365,32.562302 
	C23.906572,31.110935 23.925373,30.053844 24.385303,28.995033 
	C34.753059,29.030420 36.252430,30.256067 37.351669,39.665680 
	C35.858845,45.076668 34.424976,50.102131 32.991108,55.127590 
z"/>
<path fill="#A1A1A1" opacity="1.000000" stroke="none" 
	d="
M33.174988,55.344479 
	C34.424976,50.102131 35.858845,45.076668 37.633194,39.503788 
	C41.135452,34.672535 42.569393,28.343853 49.881821,29.197004 
	C49.943722,29.647593 49.967243,29.827997 50.014198,30.316456 
	C50.476013,31.215490 50.914394,31.806467 51.352779,32.397446 
	C51.556202,31.877794 51.759624,31.358141 52.231060,30.974115 
	C53.000732,31.406815 53.502388,31.703886 54.337280,32.001549 
	C55.115044,31.999523 55.559578,31.996906 56.248444,32.216702 
	C54.994919,34.626076 53.497059,36.813038 51.708027,39.151962 
	C50.263027,39.857819 49.109200,40.411709 47.970921,40.597996 
	C47.989441,39.493599 47.992420,38.756805 48.138832,37.747360 
	C51.952316,34.505928 49.016209,33.041622 47.200485,31.243357 
	C43.190407,32.670265 44.150669,35.267807 44.700146,37.885094 
	C43.396744,38.649231 42.175900,39.207779 41.600677,40.157402 
	C40.794941,41.487587 40.680531,43.230331 39.900696,44.583546 
	C37.344219,49.019691 37.584263,49.519218 43.070976,50.326843 
	C46.696976,51.244987 50.388020,52.364826 53.377972,48.173027 
	C53.253544,50.123367 53.129116,52.073711 53.022087,54.394455 
	C53.940887,55.767410 54.965446,56.686977 55.711506,57.794205 
	C56.580524,59.083920 57.205902,60.537807 57.661392,62.166912 
	C54.349098,62.837193 51.312408,63.261021 48.196678,63.422256 
	C48.073967,62.796448 48.030296,62.433228 48.056240,61.726810 
	C49.920734,60.956783 51.715614,60.529957 53.510498,60.103130 
	C51.947456,58.670155 50.201405,58.452595 48.537518,57.958405 
	C46.769897,57.433411 44.690716,57.066452 43.427788,55.896328 
	C39.244488,52.020432 38.030216,52.086437 34.890770,57.199543 
	C34.380138,56.653484 33.869503,56.107426 33.174988,55.344479 
z"/>
<path fill="#9C9C9C" opacity="1.000000" stroke="none" 
	d="
M64.497490,77.780861 
	C56.337357,76.521988 48.042191,75.806381 40.062176,73.822845 
	C34.254959,72.379395 33.752735,69.706787 37.253918,64.398056 
	C40.894928,64.786690 43.950863,65.405113 47.395828,66.085175 
	C50.828358,66.365692 53.871864,66.584564 57.014214,66.810539 
	C56.760036,67.640358 56.395634,68.830032 55.914074,70.068909 
	C55.796917,70.118103 55.785702,70.411888 55.785702,70.411888 
	C55.785702,70.411888 55.976559,69.967049 56.397625,69.990501 
	C59.656139,69.661934 62.077679,69.781609 62.489571,73.555618 
	C62.586143,74.440460 63.834553,75.199585 64.577393,76.310760 
	C64.566994,76.996941 64.532242,77.388901 64.497490,77.780861 
z"/>
<path fill="#4D4D4D" opacity="1.000000" stroke="none" 
	d="
M78.976601,80.904861 
	C77.333527,80.148094 75.690453,79.391327 74.018311,78.321060 
	C73.989250,78.007576 73.975983,78.016876 74.344460,78.005127 
	C77.371941,76.337288 80.030937,74.681190 82.204620,73.327362 
	C83.218842,73.902756 84.198120,74.458328 85.177399,75.013901 
	C85.731018,74.019127 86.515488,73.081352 86.778824,72.014900 
	C87.095978,70.730545 86.970329,69.336853 87.294617,68.236046 
	C88.293419,72.060516 89.629730,75.254974 93.049500,77.460297 
	C93.016365,78.885040 93.031288,79.923447 92.814316,81.250008 
	C91.741379,84.347900 90.900337,87.157639 89.717827,89.916618 
	C88.774406,88.091240 88.172455,86.316620 87.045418,82.993988 
	C86.097145,85.398170 85.570518,86.733353 85.036469,88.388779 
	C84.381371,89.438736 83.733688,90.168449 83.085999,90.898163 
	C83.000053,88.250107 82.914101,85.602051 82.817017,82.169113 
	C81.529449,81.224449 80.253021,81.064659 78.976601,80.904861 
z"/>
<path fill="#AEAEAE" opacity="1.000000" stroke="none" 
	d="
M35.066761,57.504303 
	C38.030216,52.086437 39.244488,52.020432 43.427788,55.896328 
	C44.690716,57.066452 46.769897,57.433411 48.537518,57.958405 
	C50.201405,58.452595 51.947456,58.670155 53.510498,60.103130 
	C51.715614,60.529957 49.920734,60.956783 47.715275,61.701286 
	C46.851002,62.057899 46.397305,62.096844 45.579807,62.113083 
	C44.489231,62.051823 43.762459,62.013264 42.823616,61.721729 
	C41.192638,61.186737 39.773724,60.904720 38.354813,60.622707 
	C37.317459,59.684826 36.280106,58.746941 35.066761,57.504303 
z"/>
<path fill="#2A2A2A" opacity="1.000000" stroke="none" 
	d="
M83.013977,91.267227 
	C83.733688,90.168449 84.381371,89.438736 85.288605,88.642960 
	C85.805199,92.175446 88.261345,92.293022 90.973953,92.004639 
	C91.017014,92.437813 91.060074,92.870995 91.105316,93.631508 
	C89.971764,94.792183 88.836021,95.625519 87.453087,96.640221 
	C85.759621,96.163734 82.973518,94.255653 81.937836,99.191559 
	C80.328461,98.675751 78.756378,97.730049 77.030396,96.472366 
	C78.898308,94.652344 80.920128,93.144318 83.013977,91.267227 
z"/>
<path fill="#2A2A2A" opacity="1.000000" stroke="none" 
	d="
M64.895493,77.836349 
	C64.532242,77.388901 64.566994,76.996941 64.913918,76.297974 
	C65.160263,74.281548 65.094437,72.572128 65.410629,70.895355 
	C67.284645,72.477982 68.776627,74.027962 70.420044,75.735268 
	C70.794487,74.480156 71.201996,73.114189 71.918961,72.019653 
	C72.489494,74.191833 72.750565,76.092575 73.011642,77.993317 
	C70.438927,77.959488 67.866211,77.925659 64.895493,77.836349 
z"/>
<path fill="#4D4D4D" opacity="1.000000" stroke="none" 
	d="
M73.259232,78.008682 
	C72.750565,76.092575 72.489494,74.191833 71.940544,71.599884 
	C71.731224,68.620422 71.809776,66.332161 71.945221,63.710140 
	C72.004295,62.925320 72.006470,62.474262 72.317215,61.976772 
	C73.034531,61.854446 73.443283,61.778561 74.023682,61.990181 
	C74.482735,64.533958 74.770149,66.790222 75.035194,69.473633 
	C74.667206,72.606133 74.321594,75.311508 73.975983,78.016876 
	C73.975983,78.016876 73.989250,78.007576 73.995758,78.002533 
	C74.002266,77.997498 73.506836,78.024040 73.259232,78.008682 
z"/>
<path fill="#909090" opacity="1.000000" stroke="none" 
	d="
M12.981000,77.998131 
	C15.124849,79.926872 17.572563,81.646011 19.365259,83.888748 
	C20.233833,84.975365 19.874022,87.043877 20.070353,88.667847 
	C19.237341,88.904251 18.404329,89.140656 17.571318,89.377060 
	C16.003151,85.829491 14.434985,82.281921 12.950737,78.335602 
	C13.034656,77.936859 13.015404,78.003929 12.981000,77.998131 
z"/>
<path fill="#7A7A7A" opacity="1.000000" stroke="none" 
	d="
M38.098167,61.012665 
	C39.773724,60.904720 41.192638,61.186737 42.555302,61.759468 
	C42.346069,62.106350 42.162754,62.128105 42.048809,62.228550 
	C41.939198,62.325176 41.825123,62.617447 41.842812,62.629253 
	C43.556133,63.772678 45.281860,64.897514 47.006802,66.023529 
	C43.950863,65.405113 40.894928,64.786690 37.484241,64.112930 
	C37.366837,63.172604 37.604176,62.287609 38.098167,61.012665 
z"/>
<path fill="#B8B8B8" opacity="1.000000" stroke="none" 
	d="
M22.928429,57.015774 
	C22.979013,57.838905 23.029598,58.662033 23.060646,59.897278 
	C21.669315,61.267830 20.297520,62.226265 18.589970,63.151428 
	C14.139796,60.932930 20.693407,60.413765 18.988539,57.970272 
	C19.314562,56.869427 19.611820,56.398666 20.204903,56.068779 
	C21.309959,56.478359 22.119194,56.747066 22.928429,57.015774 
z"/>
<path fill="#2A2A2A" opacity="1.000000" stroke="none" 
	d="
M76.925568,95.720039 
	C75.916672,94.334480 74.955322,92.523949 74.020233,90.353775 
	C78.193001,90.010429 76.741379,93.117432 76.925568,95.720039 
z"/>
<path fill="#2A2A2A" opacity="1.000000" stroke="none" 
	d="
M79.201920,81.171066 
	C80.253021,81.064659 81.529449,81.224449 82.793640,81.728104 
	C81.663353,81.860413 80.545296,81.648842 79.201920,81.171066 
z"/>
<path fill="#575757" opacity="1.000000" stroke="none" 
	d="
M59.907761,17.404057 
	C60.891262,16.809690 61.690384,16.472582 62.770500,15.967028 
	C63.476566,15.854415 63.901642,15.910250 64.647354,15.938223 
	C69.028435,16.184484 73.208107,15.945366 77.121078,16.854342 
	C82.833672,18.181368 87.002350,22.125433 90.789703,26.875475 
	C91.488846,27.903194 91.854782,28.828619 92.475388,29.913116 
	C93.167915,30.754145 93.605774,31.436098 94.373383,32.126270 
	C94.445923,34.599888 94.188721,37.065281 93.472977,39.765686 
	C92.719276,36.581539 92.719276,36.581539 90.596687,36.869179 
	C89.159096,36.135654 88.036896,35.424454 86.642265,34.540596 
	C87.861641,34.090050 88.549789,33.835789 89.237938,33.581524 
	C89.264954,33.196426 89.291969,32.811329 89.318985,32.426228 
	C87.261284,31.892366 85.203583,31.358503 82.984558,30.586935 
	C80.420700,28.851784 81.049194,21.660517 76.088638,26.190510 
	C74.111954,24.935076 72.592522,23.970051 70.810440,22.892883 
	C70.055367,22.500008 69.562950,22.219276 69.043655,21.969982 
	C69.016785,22.001419 69.056778,21.930992 68.876244,21.609295 
	C65.924164,19.327919 63.280964,19.088943 60.597939,22.044086 
	C59.523979,21.792673 58.715225,21.368961 57.906467,20.945248 
	C58.512104,19.850603 59.117741,18.755960 59.907761,17.404057 
z"/>
<path fill="#242424" opacity="1.000000" stroke="none" 
	d="
M90.912086,36.891506 
	C92.719276,36.581539 92.719276,36.581539 93.285370,40.071114 
	C93.582909,40.365246 93.609512,40.588955 93.759933,41.119492 
	C93.883751,41.426327 93.845314,41.370934 93.528984,41.625278 
	C92.430740,44.887810 91.648834,47.895992 90.575706,50.949226 
	C89.892632,51.022999 89.500778,51.051716 88.730423,51.061722 
	C85.661903,53.639320 82.971878,56.235626 80.051949,59.053825 
	C80.071373,59.074253 79.446854,58.417519 78.822708,57.480438 
	C78.761108,56.831600 78.699135,56.463112 78.989609,56.032768 
	C79.710846,54.901726 80.079643,53.832539 80.448433,52.763348 
	C80.023933,52.618710 79.599434,52.474072 79.174934,52.329433 
	C78.119675,53.499317 77.064415,54.669201 75.790771,55.973267 
	C75.410873,56.163239 75.249359,56.219032 74.729370,56.150646 
	C73.522995,54.331642 72.675117,52.636822 72.103027,50.711433 
	C72.828087,48.589085 73.277367,46.697304 73.985184,44.991051 
	C74.699677,45.801971 75.155632,46.427361 75.239357,46.542206 
	C76.846024,45.285484 78.373375,44.090805 79.884262,43.259918 
	C79.867798,45.918041 79.867798,48.212372 79.867798,50.709927 
	C82.822868,49.991463 84.715202,49.531384 86.491814,49.099438 
	C85.664711,44.919258 84.872482,40.915329 84.407654,36.971947 
	C85.888443,37.884354 87.041840,38.736221 88.542320,39.844437 
	C89.338676,38.852116 90.125381,37.871811 90.912086,36.891506 
z"/>
<path fill="#E0E0E0" opacity="1.000000" stroke="none" 
	d="
M90.866928,50.904175 
	C91.648834,47.895992 92.430740,44.887810 93.689270,41.771397 
	C94.506393,41.697308 94.732521,41.552635 94.844246,41.229153 
	C98.852028,41.997490 98.587265,41.995941 98.382751,45.502399 
	C98.019287,51.733635 98.027969,57.986576 97.929672,64.615822 
	C97.410469,66.132713 96.842575,67.264221 95.981613,68.979675 
	C94.931122,67.208481 94.071793,65.759590 92.884880,63.736919 
	C91.993843,59.076813 91.430382,54.990494 90.866928,50.904175 
z"/>
<path fill="#575757" opacity="1.000000" stroke="none" 
	d="
M94.580597,41.246246 
	C94.732521,41.552635 94.506393,41.697308 94.005600,41.517052 
	C93.845314,41.370934 93.883751,41.426327 93.855331,41.443676 
	C93.990250,41.395130 94.153595,41.329235 94.580597,41.246246 
z"/>
<path fill="#7A7A7A" opacity="1.000000" stroke="none" 
	d="
M90.575699,50.949226 
	C91.430382,54.990494 91.993843,59.076813 92.574600,63.561241 
	C93.448677,68.048630 94.305443,72.137917 94.811142,76.616951 
	C94.005905,77.029121 93.551727,77.051537 93.097557,77.073952 
	C89.629730,75.254974 88.293419,72.060516 87.244415,67.881607 
	C87.090820,63.433544 87.245682,59.585476 87.351837,55.420509 
	C87.905060,53.762550 88.506989,52.421490 89.108917,51.080429 
	C89.500778,51.051716 89.892632,51.022999 90.575699,50.949226 
z"/>
<path fill="#7A7A7A" opacity="1.000000" stroke="none" 
	d="
M90.059296,89.967369 
	C90.900337,87.157639 91.741379,84.347900 93.158646,81.270737 
	C94.195740,80.995163 94.656593,80.987015 95.117455,80.978874 
	C95.130684,82.013611 95.143913,83.048355 95.178345,84.468170 
	C94.174461,86.868607 93.149376,88.883957 91.576401,90.789017 
	C90.705429,90.441612 90.382362,90.204491 90.059296,89.967369 
z"/>
<path fill="#A1A1A1" opacity="1.000000" stroke="none" 
	d="
M95.347824,80.758743 
	C94.656593,80.987015 94.195740,80.995163 93.390549,80.982574 
	C93.031288,79.923447 93.016365,78.885040 93.049500,77.460297 
	C93.551727,77.051537 94.005905,77.029121 94.802681,77.016182 
	C95.289589,78.196640 95.433891,79.367622 95.347824,80.758743 
z"/>
<path fill="#C9C9C9" opacity="1.000000" stroke="none" 
	d="
M49.843445,28.926821 
	C42.569393,28.343853 41.135452,34.672535 37.692154,39.118263 
	C36.252430,30.256067 34.753059,29.030420 24.145760,29.002651 
	C23.465086,29.011990 22.984678,29.012083 22.984678,29.012083 
	C24.648144,26.942240 26.311611,24.872398 27.974392,22.440180 
	C32.583237,23.597895 36.428013,23.436989 37.853706,17.315403 
	C38.165291,16.983044 38.335243,16.982697 38.760178,16.989189 
	C40.577114,21.329807 45.831890,23.766344 49.583740,21.697279 
	C50.339005,21.280767 50.829556,19.894005 50.938370,18.899462 
	C51.152771,16.939926 51.014107,14.941759 51.024014,12.508741 
	C52.016941,13.475767 53.491219,14.774398 53.877243,16.341158 
	C54.378342,18.374941 54.013428,20.622101 54.004021,23.499153 
	C53.978451,24.411264 53.970142,24.601633 53.685883,24.898136 
	C53.169041,25.302441 52.928158,25.600611 52.420372,25.957512 
	C51.701313,26.551262 51.249157,27.086281 50.585827,27.795788 
	C50.197582,28.289124 50.020515,28.607973 49.843445,28.926821 
z"/>
<path fill="#AEAEAE" opacity="1.000000" stroke="none" 
	d="
M53.961838,24.792000 
	C53.970142,24.601633 53.978451,24.411264 54.009071,23.932611 
	C55.141914,22.788918 56.252449,21.933510 57.634724,21.011673 
	C58.715225,21.368961 59.523979,21.792673 61.055035,22.076221 
	C64.203812,21.934368 66.630295,21.932680 69.056778,21.930992 
	C69.056778,21.930992 69.016785,22.001419 69.014801,22.379192 
	C68.979134,23.847771 68.945465,24.938574 68.523224,26.027821 
	C64.062569,26.356398 59.990482,26.686535 55.646553,26.871567 
	C54.903748,26.081642 54.432793,25.436821 53.961838,24.792000 
z"/>
<path fill="#E5E5E5" opacity="1.000000" stroke="none" 
	d="
M19.909077,55.927906 
	C19.611820,56.398666 19.314562,56.869427 18.983412,57.627510 
	C15.376790,59.229275 11.920277,60.257523 11.093586,54.361115 
	C12.151503,53.682404 13.238975,53.379330 15.014832,53.012077 
	C16.509483,50.653923 17.315750,48.359943 18.338943,45.735291 
	C18.627857,42.949547 18.699842,40.494480 18.832180,37.629551 
	C19.190672,32.245102 19.190672,32.245102 22.034933,33.400345 
	C21.295670,41.190861 20.602373,48.559383 19.909077,55.927906 
z"/>
<path fill="#AEAEAE" opacity="1.000000" stroke="none" 
	d="
M18.771828,38.039410 
	C18.699842,40.494480 18.627857,42.949547 17.925196,45.715607 
	C16.199274,46.016819 15.104028,46.007050 14.008783,45.997276 
	C14.203457,42.888657 14.398131,39.780041 15.032538,36.446190 
	C16.572124,36.827106 17.671976,37.433258 18.771828,38.039410 
z"/>
<path fill="#B8B8B8" opacity="1.000000" stroke="none" 
	d="
M18.832180,37.629551 
	C17.671976,37.433258 16.572124,36.827106 15.180501,36.064259 
	C14.918648,34.866600 14.948565,33.825634 15.001400,32.392548 
	C17.417231,31.001698 19.810144,30.002972 22.593868,29.008163 
	C22.984678,29.012083 23.465086,29.011990 23.704630,29.004372 
	C23.925373,30.053844 23.906572,31.110935 23.560581,32.572266 
	C22.849230,32.977119 22.465065,32.977734 22.080900,32.978348 
	C19.190672,32.245102 19.190672,32.245102 18.832180,37.629551 
z"/>
<path fill="#B8B8B8" opacity="1.000000" stroke="none" 
	d="
M13.985691,46.399979 
	C15.104028,46.007050 16.199274,46.016819 17.708267,46.046280 
	C17.315750,48.359943 16.509483,50.653923 15.354656,52.972603 
	C14.658264,50.932426 14.310432,48.867550 13.985691,46.399979 
z"/>
<path fill="#C9C9C9" opacity="1.000000" stroke="none" 
	d="
M101.466957,33.521057 
	C101.445976,33.481083 101.487938,33.561028 101.466957,33.521057 
z"/>
<path fill="#3B3B3B" opacity="1.000000" stroke="none" 
	d="
M89.717827,89.916618 
	C90.382362,90.204491 90.705429,90.441612 91.261818,90.873154 
	C91.423294,91.232094 91.351456,91.396606 91.126785,91.782875 
	C88.261345,92.293022 85.805199,92.175446 85.296021,88.322723 
	C85.570518,86.733353 86.097145,85.398170 87.045418,82.993988 
	C88.172455,86.316620 88.774406,88.091240 89.717827,89.916618 
z"/>
<path fill="#C0C0C0" opacity="1.000000" stroke="none" 
	d="
M22.034933,33.400345 
	C22.465065,32.977734 22.849230,32.977119 23.519176,32.966537 
	C23.527765,40.673107 23.250570,48.389645 22.950901,56.560974 
	C22.119194,56.747066 21.309959,56.478359 20.204901,56.068779 
	C20.602373,48.559383 21.295670,41.190861 22.034933,33.400345 
z"/>
<path fill="#AAAAAA" opacity="1.000000" stroke="none" 
	d="
M53.004688,54.024052 
	C53.129116,52.073711 53.253544,50.123367 53.377972,48.173027 
	C50.388020,52.364826 46.696976,51.244987 43.101860,50.065704 
	C44.020489,48.992176 44.986462,48.516602 45.969765,47.761475 
	C45.996441,47.295418 46.005779,47.108925 46.328598,46.963379 
	C49.369843,47.715336 49.175503,46.431900 48.481724,44.503876 
	C48.085857,43.403767 48.116680,42.150116 47.955376,40.965599 
	C49.109200,40.411709 50.263027,39.857819 52.080925,39.151276 
	C54.172737,38.679604 55.600479,38.360584 57.075150,38.349304 
	C57.481297,40.005955 60.687027,40.869785 57.613358,42.976582 
	C57.052933,43.360718 57.705776,47.218266 61.287003,46.192181 
	C63.302975,48.714798 67.993042,49.387566 65.628769,53.997421 
	C64.859398,54.682587 64.393379,55.298977 63.717926,55.959976 
	C63.508492,56.004589 63.092186,56.105087 62.729431,56.100883 
	C59.246017,55.405800 56.125351,54.714928 53.004688,54.024052 
z"/>
<path fill="#B8B8B8" opacity="1.000000" stroke="none" 
	d="
M57.028221,38.041565 
	C55.600479,38.360584 54.172737,38.679604 52.372097,38.999310 
	C53.497059,36.813038 54.994919,34.626076 56.238426,31.931465 
	C55.967224,31.234146 55.950371,31.044476 55.958214,30.471058 
	C55.961403,29.063765 55.939899,28.040218 55.918396,27.016670 
	C59.990482,26.686535 64.062569,26.356398 68.740967,26.259769 
	C69.945641,26.631653 70.544006,26.770027 71.341507,27.042984 
	C71.764557,27.418329 71.913483,27.698898 71.983627,28.399467 
	C73.075432,30.459784 74.171028,32.139908 75.399452,34.065865 
	C75.594498,34.865864 75.656700,35.420033 75.419075,36.016090 
	C74.095268,37.053288 73.071289,38.048595 71.711708,39.072746 
	C69.582893,39.414333 67.789680,39.727077 65.781830,39.784988 
	C64.710594,39.355549 63.854008,39.180946 62.760902,38.990730 
	C62.524384,38.975121 62.050770,38.954552 62.029617,38.639961 
	C61.338539,37.871948 60.668613,37.418526 59.706970,37.094658 
	C58.619572,37.496666 57.823898,37.769115 57.028221,38.041565 
z"/>
<path fill="#616161" opacity="1.000000" stroke="none" 
	d="
M63.092186,56.105087 
	C63.092186,56.105087 63.508492,56.004589 64.058411,56.000172 
	C65.409210,55.683762 66.210083,55.371769 67.334930,55.024521 
	C68.086456,54.911751 68.514023,54.834232 69.223709,54.856323 
	C69.689224,55.989296 69.872604,57.022655 69.974197,58.360737 
	C68.944443,59.468956 67.996475,60.272453 66.860458,61.134666 
	C66.593361,61.297016 66.425423,61.453712 66.450256,61.495319 
	C66.573967,61.702545 66.748375,61.879501 66.943863,62.070034 
	C66.982780,62.072956 66.906616,62.094608 66.909485,62.427910 
	C66.990677,63.199657 67.069000,63.638100 66.892746,64.348068 
	C66.061150,66.435616 65.484131,68.251633 64.668243,70.096985 
	C64.205132,70.302979 63.980892,70.479645 63.756660,70.656311 
	C64.194717,70.757973 64.632782,70.859627 65.035126,70.947418 
	C64.999420,70.933556 65.028603,70.862717 65.028603,70.862717 
	C65.094437,72.572128 65.160263,74.281548 64.889565,76.003754 
	C63.834553,75.199585 62.586143,74.440460 62.489571,73.555618 
	C62.077679,69.781609 59.656139,69.661934 56.409660,70.005386 
	C56.000626,69.996826 56.031227,70.019707 56.031227,70.019707 
	C56.395634,68.830032 56.760036,67.640358 57.014214,66.810539 
	C53.871864,66.584564 50.828358,66.365692 47.395828,66.085175 
	C45.281860,64.897514 43.556133,63.772678 41.842812,62.629253 
	C41.825123,62.617447 41.939198,62.325176 42.048809,62.228550 
	C42.162754,62.128105 42.346069,62.106350 42.767372,62.012444 
	C43.762459,62.013264 44.489231,62.051823 45.668808,62.424458 
	C46.839645,63.067307 47.557686,63.376076 48.275723,63.684845 
	C51.312408,63.261021 54.349098,62.837193 58.028351,62.163334 
	C60.144669,59.977226 61.618427,58.041157 63.092186,56.105087 
z"/>
<path fill="#909090" opacity="1.000000" stroke="none" 
	d="
M47.970921,40.598000 
	C48.116680,42.150116 48.085857,43.403767 48.481724,44.503876 
	C49.175503,46.431900 49.369843,47.715336 46.302177,46.720825 
	C45.552731,46.297050 45.143185,46.156773 44.733635,46.016495 
	C45.139900,46.691341 45.546165,47.366188 45.952431,48.041031 
	C44.986462,48.516602 44.020489,48.992176 43.023636,49.728889 
	C37.584263,49.519218 37.344219,49.019691 39.900696,44.583546 
	C40.680531,43.230331 40.794941,41.487587 41.600677,40.157402 
	C42.175900,39.207779 43.396744,38.649231 45.063995,37.919292 
	C46.530792,37.954941 47.263092,37.987476 47.995396,38.020012 
	C47.992420,38.756805 47.989441,39.493599 47.970921,40.598000 
z"/>
<path fill="#848484" opacity="1.000000" stroke="none" 
	d="
M62.729431,56.100883 
	C61.618427,58.041157 60.144669,59.977226 58.303959,61.916878 
	C57.205902,60.537807 56.580524,59.083920 55.711506,57.794205 
	C54.965446,56.686977 53.940887,55.767410 53.022087,54.394455 
	C56.125351,54.714928 59.246017,55.405800 62.729431,56.100883 
z"/>
<path fill="#AEAEAE" opacity="1.000000" stroke="none" 
	d="
M48.138832,37.747360 
	C47.263092,37.987476 46.530792,37.954941 45.434639,37.888206 
	C44.150669,35.267807 43.190407,32.670265 47.200485,31.243357 
	C49.016209,33.041622 51.952316,34.505928 48.138832,37.747360 
z"/>
<path fill="#575757" opacity="1.000000" stroke="none" 
	d="
M49.881821,29.197004 
	C50.020515,28.607973 50.197582,28.289124 50.871857,28.000195 
	C52.301559,29.039919 53.234051,30.049723 54.111984,31.292479 
	C54.057423,31.525433 54.004047,32.000957 54.004047,32.000957 
	C53.502388,31.703886 53.000732,31.406815 52.067326,30.747982 
	C51.087307,30.260281 50.539040,30.134340 49.990768,30.008400 
	C49.967243,29.827997 49.943722,29.647593 49.881821,29.197004 
z"/>
<path fill="#7A7A7A" opacity="1.000000" stroke="none" 
	d="
M50.014198,30.316456 
	C50.539040,30.134340 51.087307,30.260281 51.799313,30.612354 
	C51.759624,31.358141 51.556202,31.877794 51.352779,32.397446 
	C50.914394,31.806467 50.476013,31.215490 50.014198,30.316456 
z"/>
<path fill="#7A7A7A" opacity="1.000000" stroke="none" 
	d="
M48.196678,63.422256 
	C47.557686,63.376076 46.839645,63.067307 46.032608,62.447159 
	C46.397305,62.096844 46.851002,62.057899 47.645660,62.044487 
	C48.030296,62.433228 48.073967,62.796448 48.196678,63.422256 
z"/>
<path fill="#AEAEAE" opacity="1.000000" stroke="none" 
	d="
M54.337280,32.001549 
	C54.004047,32.000957 54.057423,31.525433 54.367531,31.245718 
	C54.847557,30.931816 55.017479,30.897629 55.374027,30.870007 
	C55.560658,30.876570 55.933517,30.854805 55.933517,30.854805 
	C55.950371,31.044476 55.967224,31.234146 55.994095,31.709053 
	C55.559578,31.996906 55.115044,31.999523 54.337280,32.001549 
z"/>
<path fill="#616161" opacity="1.000000" stroke="none" 
	d="
M55.988594,69.981934 
	C55.976559,69.967049 55.785702,70.411888 55.785702,70.411888 
	C55.785702,70.411888 55.796917,70.118103 55.914070,70.068909 
	C56.031227,70.019707 56.000626,69.996826 55.988594,69.981934 
z"/>
<path fill="#2A2A2A" opacity="1.000000" stroke="none" 
	d="
M87.400543,55.737411 
	C87.245682,59.585476 87.090820,63.433544 86.986160,67.636047 
	C86.970329,69.336853 87.095978,70.730545 86.778824,72.014900 
	C86.515488,73.081352 85.731018,74.019127 85.177399,75.013901 
	C84.198120,74.458328 83.218842,73.902756 82.204620,73.327362 
	C80.030937,74.681190 77.371941,76.337288 74.344460,78.005127 
	C74.321594,75.311508 74.667206,72.606133 75.390457,69.449280 
	C76.802132,68.091324 77.970749,67.298012 78.845566,66.257660 
	C81.754120,62.798744 84.557091,59.251057 87.400543,55.737411 
M83.783531,69.946564 
	C83.649872,69.626923 83.516205,69.307274 83.382538,68.987633 
	C83.408417,69.385925 83.434296,69.784210 83.783531,69.946564 
z"/>
<path fill="#AAAAAA" opacity="1.000000" stroke="none" 
	d="
M64.907112,70.067657 
	C65.484131,68.251633 66.061150,66.435616 67.284081,64.332413 
	C69.249443,64.044785 70.568886,64.044342 71.888336,64.043900 
	C71.809776,66.332161 71.731224,68.620422 71.631088,71.328445 
	C71.201996,73.114189 70.794487,74.480156 70.420044,75.735268 
	C68.776627,74.027962 67.284645,72.477982 65.410629,70.895355 
	C65.028603,70.862717 64.999420,70.933556 65.036545,70.716293 
	C65.073662,70.499031 64.907112,70.067657 64.907112,70.067657 
z"/>
<path fill="#3B3B3B" opacity="1.000000" stroke="none" 
	d="
M87.351837,55.420509 
	C84.557091,59.251057 81.754120,62.798744 78.845566,66.257660 
	C77.970749,67.298012 76.802132,68.091324 75.412842,69.022148 
	C74.770149,66.790222 74.482735,64.533958 74.252136,61.777103 
	C75.403786,60.150658 76.498604,59.024796 77.903503,57.883591 
	C78.416489,57.832424 78.619408,57.796604 78.822334,57.760788 
	C79.446854,58.417519 80.071373,59.074253 80.051949,59.053825 
	C82.971878,56.235626 85.661903,53.639320 88.730423,51.061722 
	C88.506989,52.421490 87.905060,53.762550 87.351837,55.420509 
z"/>
<path fill="#AAAAAA" opacity="1.000000" stroke="none" 
	d="
M77.593430,57.898941 
	C76.498604,59.024796 75.403786,60.150658 74.080505,61.489594 
	C73.443283,61.778561 73.034531,61.854446 72.100327,61.732559 
	C70.018799,61.721386 68.462708,61.907997 66.906616,62.094604 
	C66.906616,62.094608 66.982780,62.072956 66.992363,61.823730 
	C67.017471,61.408314 67.032990,61.242126 67.048508,61.075943 
	C67.996475,60.272453 68.944443,59.468956 70.353004,58.370911 
	C72.238350,57.475853 73.663101,56.875343 75.087852,56.274830 
	C75.249359,56.219032 75.410873,56.163239 75.998230,56.099007 
	C76.424080,56.090572 76.864204,56.294434 76.874573,56.527252 
	C77.121109,57.139690 77.357269,57.519318 77.593430,57.898941 
z"/>
<path fill="#909090" opacity="1.000000" stroke="none" 
	d="
M66.909485,62.427910 
	C68.462708,61.907997 70.018799,61.721386 71.791771,61.778992 
	C72.006470,62.474262 72.004295,62.925320 71.945221,63.710136 
	C70.568886,64.044342 69.249443,64.044785 67.538651,64.060883 
	C67.069000,63.638100 66.990677,63.199657 66.909485,62.427910 
z"/>
<path fill="#2A2A2A" opacity="1.000000" stroke="none" 
	d="
M71.987419,28.019274 
	C71.913483,27.698898 71.764557,27.418329 71.359863,26.652891 
	C71.143745,25.087152 71.108421,24.046091 71.073090,23.005028 
	C72.592522,23.970051 74.111954,24.935076 76.088638,26.190510 
	C81.049194,21.660517 80.420700,28.851784 83.027847,30.862711 
	C83.167946,32.245014 83.103439,33.113834 82.785202,33.894394 
	C81.692169,33.871590 80.852875,33.937046 79.966705,33.648674 
	C77.873650,31.901621 75.827454,30.508396 73.549973,28.983185 
	C72.874924,28.573889 72.431175,28.296581 71.987419,28.019274 
z"/>
<path fill="#3B3B3B" opacity="1.000000" stroke="none" 
	d="
M83.038933,33.982655 
	C83.103439,33.113834 83.167946,32.245014 83.189171,31.100416 
	C85.203583,31.358503 87.261284,31.892366 89.318985,32.426228 
	C89.291969,32.811329 89.264954,33.196426 89.237938,33.581524 
	C88.549789,33.835789 87.861641,34.090050 86.642265,34.540596 
	C88.036896,35.424454 89.159096,36.135654 90.596687,36.869179 
	C90.125381,37.871811 89.338676,38.852116 88.542320,39.844437 
	C87.041840,38.736221 85.888443,37.884354 84.394028,36.738419 
	C84.053017,36.444344 84.029465,35.975388 84.002411,35.683952 
	C83.663216,34.922565 83.351074,34.452610 83.038933,33.982655 
z"/>
<path fill="#909090" opacity="1.000000" stroke="none" 
	d="
M68.876244,21.609295 
	C66.630295,21.932680 64.203812,21.934368 61.320236,21.903923 
	C63.280964,19.088943 65.924164,19.327919 68.876244,21.609295 
z"/>
<path fill="#909090" opacity="1.000000" stroke="none" 
	d="
M70.810440,22.892883 
	C71.108421,24.046091 71.143745,25.087152 71.160721,26.518309 
	C70.544006,26.770027 69.945641,26.631653 69.129532,26.261330 
	C68.945465,24.938574 68.979134,23.847771 69.041672,22.347755 
	C69.562950,22.219276 70.055367,22.500008 70.810440,22.892883 
z"/>
<path fill="#909090" opacity="1.000000" stroke="none" 
	d="
M68.941582,54.756714 
	C68.514023,54.834232 68.086456,54.911751 67.207863,54.790546 
	C66.481926,54.370762 66.207031,54.149704 65.932129,53.928642 
	C67.993042,49.387566 63.302975,48.714798 61.192734,45.914970 
	C62.826054,42.526268 63.093750,42.533276 65.125038,45.097763 
	C65.511528,45.585705 66.376114,45.694950 67.216682,45.876534 
	C67.661194,45.596237 67.834900,45.363022 68.224289,44.926010 
	C69.685631,43.845638 70.857033,42.913765 72.393509,42.024273 
	C73.001251,42.100670 73.243912,42.134682 73.481689,42.439358 
	C73.560097,43.408520 73.643364,44.107021 73.726639,44.805523 
	C73.277367,46.697304 72.828087,48.589085 71.792175,50.789219 
	C70.450890,52.317287 69.696236,53.536999 68.941582,54.756714 
z"/>
<path fill="#171717" opacity="1.000000" stroke="none" 
	d="
M84.029465,35.975388 
	C84.029465,35.975388 84.053017,36.444344 84.066635,36.677872 
	C84.872482,40.915329 85.664711,44.919258 86.491814,49.099438 
	C84.715202,49.531384 82.822868,49.991463 79.867798,50.709927 
	C79.867798,48.212372 79.867798,45.918041 79.909058,42.900009 
	C79.965477,41.450130 79.980644,40.723957 80.335022,39.923462 
	C81.792648,38.557892 82.911057,37.266640 84.029465,35.975388 
z"/>
<path fill="#3B3B3B" opacity="1.000000" stroke="none" 
	d="
M79.995804,39.997780 
	C79.980644,40.723957 79.965477,41.450130 79.925522,42.536217 
	C78.373375,44.090805 76.846024,45.285484 75.239357,46.542206 
	C75.155632,46.427361 74.699677,45.801971 73.985184,44.991051 
	C73.643364,44.107021 73.560097,43.408520 73.819580,42.390930 
	C77.772774,40.828499 77.822220,38.676125 75.718903,35.974201 
	C75.656700,35.420033 75.594498,34.865864 75.415268,33.709846 
	C74.792587,31.777058 74.286926,30.446114 73.781265,29.115171 
	C75.827454,30.508396 77.873650,31.901621 79.814697,33.963264 
	C79.804970,36.420380 79.900391,38.209080 79.995804,39.997780 
z"/>
<path fill="#848484" opacity="1.000000" stroke="none" 
	d="
M69.223709,54.856323 
	C69.696236,53.536999 70.450890,52.317287 71.516388,51.019787 
	C72.675117,52.636822 73.522995,54.331642 74.729370,56.150646 
	C73.663101,56.875343 72.238350,57.475853 70.434792,58.066189 
	C69.872604,57.022655 69.689224,55.989296 69.223709,54.856323 
z"/>
<path fill="#3B3B3B" opacity="1.000000" stroke="none" 
	d="
M76.864204,56.294434 
	C76.864204,56.294434 76.424080,56.090572 76.216614,55.964828 
	C77.064415,54.669201 78.119675,53.499317 79.174934,52.329433 
	C79.599434,52.474072 80.023933,52.618710 80.448433,52.763348 
	C80.079643,53.832539 79.710846,54.901726 78.690033,56.034180 
	C77.646736,56.163101 77.255470,56.228767 76.864204,56.294434 
z"/>
<path fill="#848484" opacity="1.000000" stroke="none" 
	d="
M76.874573,56.527252 
	C77.255470,56.228767 77.646736,56.163101 78.337585,56.096031 
	C78.699135,56.463112 78.761108,56.831600 78.822708,57.480438 
	C78.619408,57.796604 78.416489,57.832424 77.903503,57.883591 
	C77.357269,57.519318 77.121109,57.139690 76.874573,56.527252 
z"/>
<path fill="#909090" opacity="1.000000" stroke="none" 
	d="
M55.187397,30.863443 
	C55.017479,30.897629 54.847557,30.931816 54.422089,31.012764 
	C53.234051,30.049723 52.301559,29.039919 51.083031,27.825708 
	C51.249157,27.086281 51.701313,26.551262 52.687080,26.199078 
	C53.876263,27.875755 54.531830,29.369598 55.187397,30.863443 
z"/>
<path fill="#3B3B3B" opacity="1.000000" stroke="none" 
	d="
M55.374027,30.870007 
	C54.531830,29.369598 53.876263,27.875755 52.953979,26.140347 
	C52.928158,25.600611 53.169041,25.302441 53.685883,24.898136 
	C54.432793,25.436821 54.903748,26.081642 55.646553,26.871567 
	C55.939899,28.040218 55.961403,29.063765 55.958214,30.471058 
	C55.933517,30.854805 55.560658,30.876570 55.374027,30.870007 
z"/>
<path fill="#A1A1A1" opacity="1.000000" stroke="none" 
	d="
M72.028427,41.981888 
	C70.857033,42.913765 69.685631,43.845638 68.027153,45.024704 
	C67.295944,45.455460 67.122627,45.691135 67.020119,45.978916 
	C66.376114,45.694950 65.511528,45.585705 65.125038,45.097763 
	C63.093750,42.533276 62.826054,42.526268 60.896034,45.767387 
	C57.705776,47.218266 57.052933,43.360718 57.613358,42.976582 
	C60.687027,40.869785 57.481297,40.005955 57.075150,38.349308 
	C57.823898,37.769115 58.619572,37.496666 59.833702,37.362503 
	C60.851692,37.985378 61.451233,38.469967 62.050770,38.954552 
	C62.050770,38.954552 62.524384,38.975121 62.899323,39.251072 
	C64.181664,39.697956 65.089066,39.868885 65.996468,40.039818 
	C67.789680,39.727077 69.582893,39.414333 71.704865,39.439445 
	C72.031898,40.512161 72.030167,41.247021 72.028427,41.981888 
z"/>
<path fill="#848484" opacity="1.000000" stroke="none" 
	d="
M65.628769,53.997421 
	C66.207031,54.149704 66.481926,54.370762 66.883896,54.825798 
	C66.210083,55.371769 65.409210,55.683762 64.267845,55.955559 
	C64.393379,55.298977 64.859398,54.682587 65.628769,53.997421 
z"/>
<path fill="#A1A1A1" opacity="1.000000" stroke="none" 
	d="
M45.969765,47.761475 
	C45.546165,47.366188 45.139900,46.691341 44.733635,46.016495 
	C45.143185,46.156773 45.552731,46.297050 45.988697,46.679878 
	C46.005779,47.108925 45.996441,47.295418 45.969765,47.761475 
z"/>
<path fill="#848484" opacity="1.000000" stroke="none" 
	d="
M72.393509,42.024269 
	C72.030167,41.247021 72.031898,40.512161 72.040466,39.410599 
	C73.071289,38.048595 74.095268,37.053288 75.419075,36.016090 
	C77.822220,38.676125 77.772774,40.828499 73.824448,42.120270 
	C73.243912,42.134682 73.001251,42.100670 72.393509,42.024269 
z"/>
<path fill="#909090" opacity="1.000000" stroke="none" 
	d="
M73.549973,28.983185 
	C74.286926,30.446114 74.792587,31.777058 75.282425,33.464016 
	C74.171028,32.139908 73.075432,30.459784 71.983627,28.399467 
	C72.431175,28.296581 72.874924,28.573889 73.549973,28.983185 
z"/>
<path fill="#AAAAAA" opacity="1.000000" stroke="none" 
	d="
M62.029617,38.639961 
	C61.451233,38.469967 60.851692,37.985378 60.125420,37.232948 
	C60.668613,37.418526 61.338539,37.871948 62.029617,38.639961 
z"/>
<path fill="#AAAAAA" opacity="1.000000" stroke="none" 
	d="
M65.781830,39.784988 
	C65.089066,39.868885 64.181664,39.697956 63.135841,39.266685 
	C63.854008,39.180946 64.710594,39.355549 65.781830,39.784988 
z"/>
<path fill="#2A2A2A" opacity="1.000000" stroke="none" 
	d="
M64.668243,70.096985 
	C64.907112,70.067657 65.073662,70.499031 65.072250,70.730156 
	C64.632782,70.859627 64.194717,70.757973 63.756660,70.656311 
	C63.980892,70.479645 64.205132,70.302979 64.668243,70.096985 
z"/>
<path fill="#909090" opacity="1.000000" stroke="none" 
	d="
M66.860458,61.134663 
	C67.032990,61.242126 67.017471,61.408314 66.953445,61.820808 
	C66.748375,61.879501 66.573967,61.702545 66.450256,61.495319 
	C66.425423,61.453712 66.593361,61.297016 66.860458,61.134663 
z"/>
<path fill="#4D4D4D" opacity="1.000000" stroke="none" 
	d="
M83.621857,70.064529 
	C83.434296,69.784210 83.408417,69.385925 83.382538,68.987633 
	C83.516205,69.307274 83.649872,69.626923 83.621857,70.064529 
z"/>
<path fill="#242424" opacity="1.000000" stroke="none" 
	d="
M80.335022,39.923462 
	C79.900391,38.209080 79.804970,36.420380 79.861565,34.317093 
	C80.852875,33.937046 81.692169,33.871590 82.785202,33.894394 
	C83.351074,34.452610 83.663216,34.922565 84.002411,35.683952 
	C82.911057,37.266640 81.792648,38.557892 80.335022,39.923462 
z"/>
<path fill="#848484" opacity="1.000000" stroke="none" 
	d="
M67.216682,45.876534 
	C67.122627,45.691135 67.295944,45.455460 67.737213,45.173199 
	C67.834900,45.363022 67.661194,45.596237 67.216682,45.876534 
z"/>
</svg>