<?xml version="1.0" encoding="UTF-8"?>
<svg id="Camada_2" data-name="Camada 2" xmlns="http://www.w3.org/2000/svg" viewBox="0 0 1878.06 1507.55">
  <defs>
    <style>
      .cls-1 {
        fill: #ff6514;
      }

      .cls-2 {
        fill: #f2ae13;
      }
    </style>
  </defs>
  <g id="Camada_1-2" data-name="Camada 1">
    <path class="cls-2" d="M39.65,1507.55c41.02-95.62,112.13-177.36,205.21-231.1l449.31-259.41c151.52-87.48,338.2-87.48,489.72,0l449.31,259.41c93.08,53.74,164.19,135.48,205.21,231.1,25.75-60.03,39.65-125.53,39.65-193.02V795.72c0-174.96-93.34-336.63-244.86-424.11L1183.89,112.2c-151.52-87.48-338.2-87.48-489.72,0L244.86,371.61C93.34,459.09,0,620.76,0,795.72v518.82c0,67.48,13.9,132.98,39.65,193.01Z"/>
    <path class="cls-1" d="M39.65,1460.96c41.02-95.62,112.13-177.36,205.21-231.1l449.31-259.41c151.52-87.48,338.2-87.48,489.72,0l449.31,259.41c93.08,53.74,164.19,135.48,205.21,231.1,25.75-60.03,39.65-125.53,39.65-193.02V749.13c0-174.96-93.34-336.63-244.86-424.11L1183.89,65.61c-151.52-87.48-338.2-87.48-489.72,0L244.86,325.02C93.34,412.5,0,574.17,0,749.13v518.82c0,67.48,13.9,132.98,39.65,193.01Z"/>
  </g>
</svg>