<?xml version="1.0" encoding="UTF-8"?>
<svg id="Camada_2" data-name="Camada 2" xmlns="http://www.w3.org/2000/svg" viewBox="0 0 1130 220.46">
  <defs>
    <style>
      .cls-1 {
        fill: #eb801f;
      }

      .cls-2 {
        fill: #e76522;
      }

      .cls-3 {
        fill: #f2ae13;
      }
    </style>
  </defs>
  <g id="Camada_1-2" data-name="Camada 1">
    <g>
      <path class="cls-2" d="M196.98,142.71c-5.81-3.34-12.12-5.02-18.94-5.02h-50.57L198.87,51.9c2.4-3.66,3.98-6.12,4.74-7.39,1.77-4.04,2.65-8.46,2.65-13.26,0-6.94-2.21-13.16-6.63-18.66-4.42-5.49-10.23-8.68-17.43-9.57-4.55-.5-8.02-.76-10.42-.76H37.88c-10.36,0-19.13,3.76-26.33,11.27C4.36,21.06,.76,30.12,.76,40.72s3.69,19.1,11.08,26.61c7.39,7.51,16.19,11.27,26.42,11.27h40.34L7.58,163.27c-2.02,2.53-3.41,4.55-4.17,6.06-2.27,5.18-3.41,10.23-3.41,15.15,0,7.7,2.49,14.3,7.48,19.79,4.99,5.49,11.52,8.62,19.6,9.38,2.27,.25,5.87,.38,10.8,.38H178.8c6.82,0,13-1.67,18.56-5.02,5.55-3.34,10.04-7.98,13.45-13.92,3.41-5.93,5.11-12.44,5.11-19.51s-1.7-13.32-5.11-19.13c-3.41-5.81-8.02-10.38-13.83-13.73Z"/>
      <path class="cls-2" d="M414.2,5.78c-6.57-3.85-13.89-5.78-21.97-5.78s-15.25,1.99-21.88,5.97c-6.63,3.98-11.9,9.35-15.82,16.1-3.92,6.76-5.87,14.11-5.87,22.07V118.57c0,7.58-1.64,13.01-4.92,16.29-3.92,4.67-10.54,7.01-19.89,7.01-5.05-1.14-9.03-3.47-11.93-7.01-3.41-3.53-5.11-8.96-5.11-16.29V44.13c0-12.37-4.2-22.82-12.6-31.35-8.4-8.52-18.53-12.78-30.4-12.78-7.95,0-15.25,1.93-21.88,5.78-6.63,3.85-11.9,9.06-15.82,15.63-3.92,6.57-5.87,13.89-5.87,21.97V118.95c0,29.8,7.16,52.75,21.5,68.85,14.33,16.1,36.39,25.85,66.2,29.26,7.7,.88,14.46,1.33,20.27,1.33,5.43,0,12-.44,19.7-1.33,20.08-2.27,36.62-7.35,49.62-15.25,13-7.89,22.6-18.69,28.79-32.39,6.18-13.7,9.28-30.52,9.28-50.48V43.37c0-8.08-1.93-15.4-5.78-21.97-3.85-6.56-9.06-11.77-15.63-15.63Z"/>
      <path class="cls-1" d="M651.52,37.97c-3.57-5.69-7.81-10.77-12.7-15.24,0,0,0,0,0,0h-.02c-4.71-4.32-10.03-8.08-15.98-11.27-12.12-6.5-25.32-9.75-39.59-9.75-5.45,0-10.94,.51-16.47,1.51-5.11,.79-10.45,1.99-16.02,3.61-9.6,2.65-18.12,6.25-25.57,10.8l-.1,.36c-3.17-3.85-6.96-7.07-11.38-9.63-6.41-3.7-13.3-5.58-20.67-5.68l-.04-.02c-.09,0-.18,0-.28,0-.09,0-.18,0-.27,0-11.94,0-22.1,4.13-30.49,12.39-8.39,8.26-12.57,18.43-12.57,30.49v84.77h.05v46.41c0,12.12,4.29,22.48,12.88,31.06,8.58,8.21,18.69,12.31,30.3,12.31s21.53-4.1,29.74-12.31c8.33-8.33,12.5-18.69,12.5-31.06v-46.41h.11v-37.11c.46-4.41,2.41-8.2,5.85-11.37,3.98-3.66,8.68-5.49,14.11-5.49,2.91,.07,5.57,.79,8,2.1,.26,.18,.53,.34,.82,.46,.01,0,.02,.01,.03,.02,1.47,.9,2.84,2.02,4.12,3.39,3.6,3.85,5.4,8.3,5.4,13.35v81.06c0,5.43,1.04,10.92,3.12,16.48,2.08,5.56,5.02,10.42,8.81,14.58,8.46,8.46,18.69,12.69,30.68,12.69,2.73,0,5.35-.22,7.86-.63,5.97-.61,11.56-2.4,16.77-5.43,6.5-3.79,11.71-9,15.63-15.63,3.91-6.63,5.87-13.98,5.87-22.07V75c0-13.51-3.5-25.85-10.51-37.03Z"/>
      <path class="cls-3" d="M877.71,37.97c-3.57-5.69-7.81-10.77-12.7-15.24,0,0,0,0,0,0h-.02c-4.71-4.32-10.03-8.08-15.98-11.27-12.12-6.5-25.32-9.75-39.59-9.75-5.45,0-10.94,.51-16.47,1.51-5.11,.79-10.45,1.99-16.02,3.61-9.6,2.65-18.12,6.25-25.57,10.8l-.1,.36c-3.17-3.85-6.96-7.07-11.38-9.63-6.41-3.7-13.3-5.58-20.67-5.68l-.04-.02c-.09,0-.18,0-.28,0-.09,0-.18,0-.27,0-11.94,0-22.1,4.13-30.49,12.39-8.39,8.26-12.57,18.43-12.57,30.49v84.77h.05v46.41c0,12.12,4.29,22.48,12.88,31.06,8.58,8.21,18.69,12.31,30.3,12.31s21.53-4.1,29.74-12.31c8.33-8.33,12.5-18.69,12.5-31.06v-46.41h.11v-37.11c.46-4.41,2.41-8.2,5.85-11.37,3.98-3.66,8.68-5.49,14.11-5.49,2.91,.07,5.57,.79,8,2.1,.26,.18,.53,.34,.82,.46,.01,0,.02,.01,.03,.02,1.47,.9,2.84,2.02,4.12,3.39,3.6,3.85,5.4,8.3,5.4,13.35v81.06c0,5.43,1.04,10.92,3.12,16.48,2.08,5.56,5.02,10.42,8.81,14.58,8.46,8.46,18.69,12.69,30.68,12.69,2.73,0,5.35-.22,7.86-.63,5.97-.61,11.56-2.4,16.77-5.43,6.5-3.79,11.71-9,15.63-15.63,3.91-6.63,5.87-13.98,5.87-22.07V75c0-13.51-3.5-25.85-10.51-37.03Z"/>
      <path class="cls-3" d="M1130,96.52c0,12.73-2.74,21.7-8.21,26.92-5.47,5.22-14.58,7.83-27.3,7.83h-101.77c.51,.76,2.86,3.25,7.06,7.45,3.69,2.8,7.22,4.87,10.6,6.21,3.37,1.34,7.92,2.42,13.65,3.25,5.73,.83,12.66,1.24,20.81,1.24,7.89-.38,17.88-2.23,29.98-5.54,9.29-2.29,15.85-3.44,19.67-3.44,10.31,0,18.55,2.99,24.73,8.97,6.17,5.99,9.26,13.37,9.26,22.15,0,3.18-.26,5.66-.76,7.45-1.4,4.84-3.6,9.16-6.59,12.98-2.99,3.82-6.94,7.23-11.84,10.22-4.9,2.99-11.81,6.08-20.72,9.26-10.95,3.31-22.15,5.66-33.6,7.07-8.02,1.02-16.61,1.53-25.78,1.53-18.97,0-36.37-2.77-52.22-8.31-15.85-5.54-29.44-13.4-40.76-23.58-11.33-10.18-19.92-22.15-25.78-35.89-5.86-13.75-8.78-28.77-8.78-45.06,.38-14.38,3.59-28.16,9.64-41.34,6.04-13.17,14.19-24.5,24.44-33.99,10.24-9.48,22.44-16.96,36.56-22.44,14.13-5.47,29.4-8.21,45.82-8.21,21.77,.38,41.18,5.41,58.23,15.08,10.44,6.11,19.63,13.65,27.59,22.63,7.95,8.97,14.19,18.46,18.71,28.45,4.52,9.99,6.97,19.7,7.35,29.12Zm-136.52-7.83h46.59c0-1.53-.13-2.8-.38-3.82-1.91-12.6-10.76-18.9-26.54-18.9-9.29,2.29-15.59,8.72-18.9,19.28-.51,1.53-.76,2.67-.76,3.44Z"/>
    </g>
  </g>
</svg>