<?xml version="1.0" encoding="UTF-8"?>
<svg id="Camada_2" data-name="Camada 2" xmlns="http://www.w3.org/2000/svg" viewBox="0 0 138.4 151.34">
  <defs>
    <style>
      .cls-1 {
        fill: #58595b;
      }

      .cls-1, .cls-2 {
        fill-rule: evenodd;
      }

      .cls-2 {
        fill: #fff;
      }

      .cls-3 {
        fill: #f2ae13;
      }
    </style>
  </defs>
  <g id="Camada_1-2" data-name="Camada 1">
    <g>
      <path class="cls-3" d="M0,51.51v48.32c0,9.77,5.21,18.8,13.68,23.69l41.84,24.16c8.46,4.89,18.89,4.89,27.36,0l41.84-24.16c8.46-4.89,13.68-13.92,13.68-23.69V51.51c0-9.77-5.21-18.8-13.68-23.69L82.88,3.66c-8.46-4.89-18.89-4.89-27.36,0L13.68,27.82C5.21,32.71,0,41.74,0,51.51Z"/>
      <path class="cls-1" d="M69.2,74.77c4.15-7.29,8.27-14.39,12.51-21.57,2.03-3.43,3.84-7.19,3.84-11.19,0-4.51-1.83-8.6-4.79-11.56-2.96-2.96-7.04-4.79-11.56-4.79s-8.6,1.83-11.56,4.79c-2.96,2.96-4.79,7.04-4.79,11.56,0,3.99,1.81,7.75,3.84,11.19,4.24,7.17,8.36,14.28,12.51,21.57h0Z"/>
      <path class="cls-2" d="M33.05,76.57c-2.79,.33-5.51,1.02-7.93,2.44-4.49,2.63-7.49,6.83-8.71,11.5-1.22,4.67-.66,9.8,1.97,14.29,2.63,4.49,6.83,7.49,11.5,8.71,4.67,1.22,9.8,.66,14.29-1.97,3.97-2.33,6.66-6.32,8.9-10.34,4.6-8.27,9.2-16.39,13.95-24.63H33.05Z"/>
      <path class="cls-2" d="M113.27,79.01c-2.41-1.41-5.13-2.11-7.93-2.44h-33.97c4.75,8.24,9.35,16.37,13.95,24.63,2.23,4.02,4.92,8.01,8.9,10.34,4.49,2.63,9.62,3.19,14.29,1.97,4.67-1.22,8.87-4.22,11.5-8.71,2.63-4.49,3.19-9.62,1.97-14.29-1.22-4.67-4.22-8.87-8.71-11.5Z"/>
      <path class="cls-2" d="M105.34,74.77c2.79-.33,5.51-1.02,7.93-2.44,4.49-2.63,7.49-6.83,8.71-11.5,1.22-4.67,.66-9.8-1.97-14.29-2.63-4.49-6.83-7.49-11.5-8.71-4.67-1.22-9.8-.66-14.29,1.97-3.97,2.33-6.66,6.32-8.9,10.34-4.6,8.27-9.2,16.39-13.95,24.63h33.97Z"/>
      <path class="cls-2" d="M25.12,72.33c2.41,1.41,5.13,2.11,7.93,2.44h33.97c-4.75-8.24-9.35-16.37-13.95-24.63-2.23-4.02-4.92-8.01-8.9-10.34-4.49-2.63-9.62-3.19-14.29-1.97-4.67,1.22-8.87,4.22-11.5,8.71-2.63,4.49-3.19,9.62-1.97,14.29,1.22,4.67,4.22,8.87,8.71,11.5Z"/>
      <path class="cls-1" d="M85.25,106.6c-.59-2.96-2-5.77-3.55-8.38-4.24-7.17-8.36-14.28-12.51-21.57-4.15,7.29-8.27,14.39-12.51,21.57-1.61,2.72-3.06,5.65-3.6,8.73,4.65,1.52,17.45,4.7,32.16-.35Z"/>
      <path class="cls-1" d="M85.22,112.63c.21-1.05,.32-2.13,.32-3.23,0-.05,0-.11,0-.16-6.14,2.03-11.9,2.75-16.92,2.75-7.06,0-12.64-1.38-15.75-2.37,.02,1.17,.16,2.31,.41,3.41,4.79,1.54,17.43,4.57,31.95-.39Z"/>
      <path class="cls-1" d="M68.61,118c-6.08,0-11.07-1.02-14.32-1.94,.82,1.83,1.95,3.49,3.35,4.89,2.96,2.96,7.04,4.79,11.56,4.79s8.6-1.83,11.56-4.79c1.5-1.5,2.71-3.3,3.54-5.3-5.67,1.73-11,2.35-15.69,2.35Z"/>
    </g>
  </g>
</svg>