<?xml version="1.0" encoding="UTF-8"?>
<svg id="Camada_2" data-name="Camada 2" xmlns="http://www.w3.org/2000/svg" viewBox="0 0 353.63 379.8">
  <defs>
    <style>
      .cls-1 {
        fill: #fff;
      }

      .cls-2 {
        fill: #ff6514;
      }
    </style>
  </defs>
  <g id="Camada_1-2" data-name="Camada 1">
    <g>
      <path class="cls-2" d="M176.81,376.71c-15.62,0-31.03-4.13-44.56-11.94l-84.6-48.84c-27.49-15.87-44.56-45.45-44.56-77.18v-97.69c0-31.74,17.08-61.31,44.56-77.18L132.25,15.03c13.53-7.81,28.94-11.94,44.56-11.94s31.03,4.13,44.56,11.94l84.6,48.84c27.49,15.87,44.56,45.45,44.56,77.18v97.69c0,31.74-17.08,61.31-44.56,77.18l-84.6,48.84c-13.53,7.81-28.94,11.94-44.56,11.94Z"/>
      <path class="cls-1" d="M176.81,6.17c15.08,0,29.96,3.99,43.02,11.53l84.6,48.84c26.53,15.32,43.02,43.87,43.02,74.51v97.69c0,30.64-16.48,59.19-43.02,74.51l-84.6,48.84c-13.06,7.54-27.94,11.53-43.02,11.53s-29.96-3.99-43.02-11.53l-84.6-48.84c-26.53-15.32-43.02-43.87-43.02-74.51v-97.69c0-30.64,16.48-59.19,43.02-74.51L133.79,17.7c13.06-7.54,27.94-11.53,43.02-11.53m0-6.17c-15.92,0-31.84,4.12-46.11,12.35L46.11,61.2C17.58,77.67,0,108.11,0,141.06v97.69c0,32.94,17.58,63.39,46.11,79.86l84.6,48.84c14.27,8.24,30.19,12.35,46.11,12.35s31.84-4.12,46.11-12.35l84.6-48.84c28.53-16.47,46.11-46.91,46.11-79.86v-97.69c0-32.94-17.58-63.39-46.11-79.86L222.92,12.35C208.65,4.12,192.73,0,176.81,0h0Z"/>
    </g>
  </g>
</svg>