<?xml version="1.0" encoding="UTF-8"?>
<svg id="Camada_2" data-name="Camada 2" xmlns="http://www.w3.org/2000/svg" xmlns:xlink="http://www.w3.org/1999/xlink" viewBox="0 0 156 156">
  <defs>
    <style>
      .cls-1 {
        fill: #e5e5e5;
        filter: url(#drop-shadow-1);
        stroke: #ff6514;
        stroke-miterlimit: 10;
        stroke-width: 2px;
      }

      .cls-2 {
        fill: #ff6514;
      }
    </style>
    <filter id="drop-shadow-1" filterUnits="userSpaceOnUse">
      <feOffset dx="2" dy="2"/>
      <feGaussianBlur result="blur" stdDeviation="6"/>
      <feFlood flood-color="#000" flood-opacity=".3"/>
      <feComposite in2="blur" operator="in"/>
      <feComposite in="SourceGraphic"/>
    </filter>
  </defs>
  <g id="Camada_1-2" data-name="Camada 1">
    <circle class="cls-1" cx="75.84" cy="75.71" r="59.29"/>
    <g>
      <path class="cls-2" d="M92.13,56.52c-3.66,0-7.31,0-10.97,0-1.77,0-2.32-.57-2.32-2.36,0-.46,.02-.92,0-1.39-.04-1.02,.44-1.65,1.37-2.03,3.68-1.46,7.35-2.93,11.02-4.41,.61-.25,1.17-.25,1.78,0,3.67,1.48,7.34,2.95,11.02,4.4,.93,.37,1.37,1,1.39,2.02,.07,3.57-.09,3.76-3.71,3.76-3.19,0-6.39,0-9.58,0Z"/>
      <path class="cls-2" d="M59.44,83.32c-3.66,0-7.31,0-10.97,0-1.63,0-2.21-.6-2.22-2.23,0-.46,.02-.93,0-1.39-.07-1.11,.43-1.78,1.47-2.19,3.61-1.42,7.21-2.87,10.81-4.33,.68-.28,1.32-.29,2-.01,3.63,1.47,7.27,2.93,10.91,4.37,.99,.39,1.39,1.07,1.4,2.13,.02,3.49-.11,3.65-3.59,3.65-3.27,0-6.54,0-9.81,0Z"/>
      <path class="cls-2" d="M92.12,71.53c3.58,0,7.16,0,10.74,0,2.08,0,2.55,.48,2.55,2.6,0,.81,.02,1.62,0,2.43-.04,1.21-.66,1.9-1.85,1.9-7.62,.02-15.24,.02-22.87,0-1.19,0-1.82-.69-1.85-1.9-.03-1-.02-2,0-3,.02-1.39,.65-2.01,2.08-2.02,3.73-.01,7.47,0,11.2,0Z"/>
      <path class="cls-2" d="M59.51,105.27c-3.66,0-7.31,0-10.97,0-1.7,0-2.27-.58-2.28-2.29,0-.92-.02-1.85,0-2.77,.04-1.2,.68-1.86,1.88-1.87,7.58-.02,15.17-.02,22.75,0,1.27,0,1.9,.66,1.93,1.93,.02,.96,.02,1.92,0,2.89-.02,1.48-.63,2.1-2.12,2.1-3.73,.01-7.47,0-11.2,0Z"/>
      <path class="cls-2" d="M64.52,55.47c-.3-.47-.51-.7-.62-.97-.32-.79-.24-1.54,.46-2.08,.68-.54,1.5-.59,2.12-.01,1.3,1.19,2.57,2.43,3.75,3.75,.68,.76,.5,1.66-.22,2.39-1.03,1.04-2.06,2.08-3.1,3.1-.87,.85-1.81,.97-2.57,.36-.75-.61-.79-1.55-.12-2.57,.06-.09,.1-.19,.24-.47-2.47,0-4.83-.02-7.19,.01-.66,0-.48,.59-.49,.97-.02,2.27,0,4.54,0,6.81,0,.31,.01,.62-.02,.92-.12,1.02-.8,1.68-1.74,1.63-.99-.05-1.65-.6-1.66-1.58-.05-3.54-.06-7.08,0-10.62,.02-1.09,.73-1.62,1.98-1.63,2.58-.02,5.16,0,7.74,0,.42,0,.84,0,1.46,0Z"/>
      <path class="cls-2" d="M91.43,88.28c-1.66,.84-2.47,.83-3.09,.02-.66-.87-.43-1.71,.83-2.97,.87-.87,1.73-1.76,2.62-2.61,.9-.87,1.85-.88,2.74-.02,1.03,.99,2.02,2.01,3.02,3.02,.9,.92,1.04,1.89,.39,2.65-.62,.72-1.52,.74-2.58,.06-.09-.06-.2-.08-.32-.12-.24,.53-.12,1.08-.13,1.6-.02,2.46,0,4.93-.01,7.39-.01,1.41-.58,2.05-1.92,2.07-3.35,.03-6.7,.03-10.05,0-1.19-.01-1.89-.73-1.87-1.75,.01-1.01,.73-1.68,1.92-1.7,2.46-.03,4.93-.04,7.39,0,.78,.01,1.09-.19,1.07-1.02-.05-2.19-.02-4.37-.02-6.62Z"/>
      <path class="cls-2" d="M85.77,64.05c0,1.11,0,2.23,0,3.34,0,.24,.1,.63-.28,.65-.96,.04-1.92,.04-2.88,0-.4-.01-.3-.39-.3-.63,0-2.23,.03-4.46-.02-6.69-.02-1.13,.84-.83,1.26-.7,.74,.23,1.99-.89,2.19,.68,.14,1.1,.03,2.23,.03,3.34Z"/>
      <path class="cls-2" d="M93.86,64.05c0,1.11,0,2.23,0,3.34,0,.24,.1,.63-.28,.65-.96,.04-1.92,.04-2.88,0-.4-.01-.3-.39-.3-.63,0-2.23,.03-4.46-.02-6.69-.02-1.13,.84-.83,1.26-.7,.74,.23,1.99-.89,2.19,.68,.14,1.1,.03,2.23,.03,3.34Z"/>
      <path class="cls-2" d="M98.48,64.03c0-.96,0-1.92,0-2.88,0-.19-.06-.41,.01-.57,.54-1.28,1.64-.33,2.45-.56,.39-.11,1.03-.26,1.02,.62-.03,2.27,.16,4.55-.07,6.8-.15,1.47-1.56,.35-2.35,.62-.42,.14-1.12,.27-1.07-.67,.05-1.11,.01-2.23,.01-3.34Z"/>
      <path class="cls-2" d="M49.72,90.72c0-1.04,.06-2.08-.02-3.11-.08-1.07,.69-.94,1.19-.78,.76,.24,2.14-.84,2.25,.72,.17,2.18,.02,4.38,.05,6.57,0,.62-.21,.76-.79,.78-2.69,.09-2.69,.1-2.69-2.56,0-.54,0-1.08,0-1.61Z"/>
      <path class="cls-2" d="M61.28,90.83c0,1.08-.04,2.15,.01,3.23,.03,.68-.23,.87-.86,.82-.65-.05-1.31-.03-1.96,0-.49,.02-.68-.14-.67-.65,.02-2.27-.16-4.55,.07-6.8,.15-1.46,1.56-.35,2.35-.61,.42-.14,1.11-.26,1.07,.67-.05,1.11-.01,2.23-.01,3.34Z"/>
      <path class="cls-2" d="M65.9,90.85c0-1.11,.02-2.23,0-3.34-.02-.55,.17-.7,.72-.73,2.76-.15,2.76-.17,2.76,2.6,0,1.58-.02,3.15,.01,4.73,.01,.6-.17,.77-.78,.79-2.7,.09-2.7,.11-2.7-2.55,0-.5,0-1,0-1.5Z"/>
    </g>
  </g>
</svg>