<?xml version="1.0" encoding="UTF-8"?>
<svg id="Camada_2" data-name="Camada 2" xmlns="http://www.w3.org/2000/svg" xmlns:xlink="http://www.w3.org/1999/xlink" viewBox="0 0 156 156">
  <defs>
    <style>
      .cls-1 {
        fill: #e5e5e5;
        filter: url(#drop-shadow-1);
        stroke: #ff6514;
        stroke-miterlimit: 10;
        stroke-width: 2px;
      }

      .cls-2 {
        fill: #ff6514;
      }
    </style>
    <filter id="drop-shadow-1" filterUnits="userSpaceOnUse">
      <feOffset dx="2" dy="2"/>
      <feGaussianBlur result="blur" stdDeviation="6"/>
      <feFlood flood-color="#000" flood-opacity=".3"/>
      <feComposite in2="blur" operator="in"/>
      <feComposite in="SourceGraphic"/>
    </filter>
  </defs>
  <g id="Camada_1-2" data-name="Camada 1">
    <circle class="cls-1" cx="75.96" cy="75.71" r="59.29"/>
    <g>
      <path class="cls-2" d="M84.83,104.12c-.43,0-.87,0-1.3,0-1.71-.03-2.48-.63-2.72-2.31-.13-.97-.32-1.36-1.49-1.16-2.79,.49-5.62,.45-8.42-.08-.86-.16-1.14,.04-1.23,.92-.21,2.01-.95,2.62-2.96,2.63-.91,0-1.82,.02-2.73,0-1.51-.04-2.54-.76-2.55-2.21-.04-3.36-1.14-5.93-4.05-7.92-2.07-1.42-3.38-3.71-4.36-6.06-.3-.72-.74-.95-1.47-.98-1.17-.05-2.34-.17-3.5-.29-1.47-.15-2.28-1-2.3-2.48-.03-2.08-.03-4.17,0-6.25,.02-1.53,.75-2.31,2.25-2.49,1.25-.15,2.5-.31,3.75-.38,.72-.04,1.03-.37,1.3-1,.94-2.22,2.32-4.18,4.07-5.83,.64-.6,.83-1.23,.82-2.06-.04-2.13,0-4.25-.02-6.38-.01-1.18,.55-1.64,1.69-1.58,2.64,.15,4.74,1.29,6.29,3.42,.42,.58,.75,1.01,1.55,.64,.54-.25,.93-.03,1.26,.52,2.79,4.56,6.8,7.82,11.31,10.55,1.48,.89,2.95,.86,4.43-.01,2.55-1.51,4.98-3.19,7.03-5.33,.87-.91,1.32-.65,2.04,.06,2.36,2.34,4.14,5.03,5.02,8.24,.27,.98,.67,1.03,1.44,.71,1.48-.6,2.57-1.6,3.2-3.07,.28-.64,.62-1.14,1.42-1.09,.83,.05,1.05,.68,1.25,1.31,1.41,4.53-1.32,9.3-5.95,10.3-.8,.17-1.1,.49-1.32,1.26-1.31,4.47-4.04,7.92-7.83,10.54-.79,.55-1.2,1.13-1.25,2.09-.05,1.04-.23,2.07-.39,3.1-.33,2.11-.99,2.67-3.08,2.68-.39,0-.78,0-1.17,0Zm-15.14-27.31c.02-2.29-1.78-4.16-4.05-4.21-2.34-.05-4.25,1.8-4.28,4.12-.03,2.32,1.87,4.23,4.19,4.22,2.27,0,4.12-1.86,4.14-4.13Zm24.13,7.02c0-.59-.25-1.09-.86-1.28-.67-.21-1.3,.01-1.5,.68-.75,2.44-2.14,4.43-4.03,6.1-.57,.5-.61,1.17-.09,1.74,.52,.57,1.17,.56,1.75,.09,1.3-1.04,2.37-2.29,3.23-3.71,.68-1.12,1.21-2.3,1.5-3.62Zm-30.83,8.03c.52-.05,.9-.32,1.1-.79,.29-.67-.03-1.17-.53-1.58-1.44-1.2-2.68-2.58-3.5-4.29-.38-.78-.99-1.17-1.78-.78-.89,.44-.82,1.21-.41,2,.99,1.96,2.37,3.61,4.08,4.98,.31,.25,.62,.47,1.05,.46Z"/>
      <path class="cls-2" d="M95.51,54.81c-.05,3.11-1.07,5.52-2.62,7.72-2.57,3.66-5.99,6.35-9.77,8.65-.62,.38-1.2,.39-1.82,0-4.04-2.47-7.71-5.35-10.27-9.41-1.61-2.55-2.62-5.32-1.92-8.4,1.27-5.56,7.7-7.88,12.18-4.39,.71,.56,1.06,.61,1.8,.03,2.52-1.96,5.33-2.27,8.18-.82,2.79,1.42,4.15,3.83,4.23,6.6Zm-21.58,.32c.1,1.94,.98,3.55,2.11,5.07,.53,.71,1.17,1.14,1.97,.56,.81-.58,.62-1.32,.07-2.03-.61-.79-1.15-1.62-1.45-2.59-.19-.6-.4-1.11,.49-1.41,.68-.22,.81-.88,.6-1.52-.21-.62-.73-.81-1.34-.79-1.35,.05-2.44,1.26-2.45,2.71Z"/>
    </g>
  </g>
</svg>