<?xml version="1.0" encoding="UTF-8"?>
<svg id="Camada_2" data-name="Camada 2" xmlns="http://www.w3.org/2000/svg" xmlns:xlink="http://www.w3.org/1999/xlink" viewBox="0 0 155 156">
  <defs>
    <style>
      .cls-1 {
        fill: #e5e5e5;
        filter: url(#drop-shadow-1);
        stroke: #ff6514;
        stroke-miterlimit: 10;
        stroke-width: 2px;
      }

      .cls-2 {
        fill: #ff6514;
      }
    </style>
    <filter id="drop-shadow-1" filterUnits="userSpaceOnUse">
      <feOffset dx="2" dy="2"/>
      <feGaussianBlur result="blur" stdDeviation="6"/>
      <feFlood flood-color="#000" flood-opacity=".3"/>
      <feComposite in2="blur" operator="in"/>
      <feComposite in="SourceGraphic"/>
    </filter>
  </defs>
  <g id="Camada_1-2" data-name="Camada 1">
    <circle class="cls-1" cx="75.6" cy="75.71" r="59.29"/>
    <g>
      <path class="cls-2" d="M107.68,69.61c-.45,8.41-4.82,16-13.81,20.36-8.88,4.31-17.51,3.23-25.47-2.61-.9-.66-1.33-.61-2,.17-.76,.88-1.61,1.69-2.47,2.48-.49,.45-.44,.72,0,1.18,1.78,1.87,1.76,2.39-.06,4.2-3.54,3.54-7.08,7.09-10.63,10.62-1.62,1.6-3.56,2.15-5.75,1.47-2.08-.65-3.38-2.11-3.83-4.24-.4-1.89,.08-3.6,1.42-4.96,3.81-3.87,7.65-7.7,11.51-11.52,1.03-1.02,2.05-.98,3.12,.24,.78,.88,1.27,.82,2-.03,.87-1.01,2.36-1.78,2.66-2.9,.31-1.18-1.27-2.15-1.95-3.26-9.28-15.08,.28-34.91,17.85-36.99,14.66-1.73,27.44,9.59,27.41,25.79Zm-24.46,11.58c2.6,.08,4.97-.71,7.13-2.18,4.02-2.75,7.39-6.24,10.8-9.67,.79-.79,.79-1.79,0-2.58-3.18-3.19-6.24-6.52-9.94-9.14-5.26-3.71-10.77-3.69-16.03,.06-3.66,2.61-6.69,5.9-9.84,9.06-.79,.79-.81,1.79-.02,2.58,3.38,3.4,6.71,6.88,10.69,9.6,2.15,1.47,4.52,2.31,7.2,2.27Z"/>
      <path class="cls-2" d="M83.28,77.44c-1.86,.08-3.54-.51-5.06-1.54-3.13-2.11-5.76-4.8-8.46-7.41-.36-.34-.34-.55,0-.89,2.51-2.44,4.93-5,7.82-7.01,3.77-2.62,7.51-2.63,11.28-.03,2.93,2.03,5.38,4.61,7.91,7.09,.31,.3,.31,.5,0,.8-2.86,2.74-5.62,5.6-8.99,7.74-1.37,.87-2.87,1.32-4.51,1.26Zm-5.66-9.38c0,3.1,2.57,5.64,5.67,5.62,3.05-.02,5.57-2.53,5.59-5.58,.03-3.11-2.51-5.67-5.61-5.69-3.1-.01-5.66,2.54-5.65,5.64Z"/>
      <path class="cls-2" d="M83.25,69.92c-1.04,0-1.91-.91-1.87-1.94,.04-.99,.89-1.81,1.88-1.81,1.04,0,1.91,.91,1.87,1.94-.04,.99-.89,1.81-1.88,1.81Z"/>
    </g>
  </g>
</svg>