<?xml version="1.0" encoding="UTF-8"?>
<svg id="Camada_2" data-name="Camada 2" xmlns="http://www.w3.org/2000/svg" xmlns:xlink="http://www.w3.org/1999/xlink" viewBox="0 0 215.12 156">
  <defs>
    <style>
      .cls-1 {
        fill: #e5e5e5;
        filter: url(#drop-shadow-1);
        stroke: #ff6514;
        stroke-miterlimit: 10;
        stroke-width: 2px;
      }

      .cls-2 {
        fill: #ff6514;
      }
    </style>
    <filter id="drop-shadow-1" filterUnits="userSpaceOnUse">
      <feOffset dx="2" dy="2"/>
      <feGaussianBlur result="blur" stdDeviation="6"/>
      <feFlood flood-color="#000" flood-opacity=".3"/>
      <feComposite in2="blur" operator="in"/>
      <feComposite in="SourceGraphic"/>
    </filter>
  </defs>
  <g id="Camada_1-2" data-name="Camada 1">
    <circle class="cls-1" cx="75.49" cy="75.77" r="59.29"/>
    <g>
      <path class="cls-2" d="M94.08,82.13c-2.54,0-5.08,.06-7.62-.02-2.28-.07-2.43,.94-1.58,2.68,1.79,3.65,6.71,5.24,10.61,3.22,2.32-1.2,5.62-2.81,6.72-.51,1.05,2.19-2.45,3.97-4.63,5.11-6.59,3.43-14.99,.15-17.75-6.79-2.79-6.99,.98-14.85,8.23-17.18,7.06-2.27,14.83,2.24,16.52,9.52,.66,2.84-.28,4.12-3.26,3.97-2.41-.12-4.83-.02-7.25-.02,0,0,0,.01,0,.02Zm-2.14-3.64s0,0,0,.01c1.81,0,3.61-.03,5.42,0,2.03,.04,1.9-.85,1.02-2.17-2.38-3.59-8.05-4.34-11.49-1.45-.98,.82-2.45,1.71-1.88,3.13,.42,1.04,1.94,.38,2.97,.45,1.32,.09,2.65,.02,3.97,.02Z"/>
      <path class="cls-2" d="M48.73,58.23c1.73-.24,2.56,.43,2.41,2.2-.06,.72,0,1.45,0,2.18,0,5.22,0,5.27,5.32,5.54,1.68,.08,2.71,.32,2.66,2.4-.05,1.96-.92,2.57-2.67,2.5-.6-.02-1.22,.11-1.81,0-3.03-.49-3.83,1.03-3.51,3.71,.11,.95,.04,1.93,.01,2.9-.12,4.09,1.52,7.1,5.53,8.32,2.49,.76,3.01,2.47,2.23,4.4-.88,2.18-2.71,.8-4.05,.33-5.22-1.8-8.49-6.2-8.59-11.78-.12-6.65,0-13.3-.06-19.95-.02-1.86,.31-3.16,2.54-2.77Z"/>
      <path class="cls-2" d="M64.4,85.34c.04-3-.28-6.03,.88-8.93,1.69-4.24,4.77-6.9,9.13-8.03,1.02-.26,2.66-.76,2.77,1.18,.08,1.31,.71,3-1.38,3.59-5.24,1.48-6.69,5.34-6.48,10.3,.1,2.53-.05,5.07,.01,7.61,.04,1.62-.43,2.46-2.24,2.43-1.68-.03-2.83-.29-2.72-2.36,.11-1.93,.02-3.86,.02-5.8Z"/>
      <path class="cls-2" d="M91.89,62.78c-1.51,.11-2.99,.04-4.39,.35-2.49,.56-2.46-1.39-2.88-2.75-.55-1.79,.92-1.87,2.09-2.14,3.32-.77,6.64-.98,9.99-.07,1.25,.34,2.89,.25,2.4,2.29-.36,1.48-.54,3.2-2.94,2.64-1.39-.32-2.88-.23-4.27-.31Z"/>
    </g>
    <path class="cls-2" d="M215.12,75.77l-17.91-7.32,2.51,4.32h-31.04c-1.47,0-2.84,.99-3.1,2.44-.34,1.9,1.11,3.56,2.95,3.56h31.19l-2.51,4.32,17.91-7.32Z"/>
  </g>
</svg>