<?xml version="1.0" encoding="UTF-8"?>
<svg id="Camada_2" data-name="Camada 2" xmlns="http://www.w3.org/2000/svg" xmlns:xlink="http://www.w3.org/1999/xlink" viewBox="0 0 156 156">
  <defs>
    <style>
      .cls-1 {
        fill: #e5e5e5;
        filter: url(#drop-shadow-1);
        stroke: #ff6514;
        stroke-miterlimit: 10;
        stroke-width: 2px;
      }

      .cls-2 {
        fill: #ff6514;
      }
    </style>
    <filter id="drop-shadow-1" filterUnits="userSpaceOnUse">
      <feOffset dx="2" dy="2"/>
      <feGaussianBlur result="blur" stdDeviation="6"/>
      <feFlood flood-color="#000" flood-opacity=".3"/>
      <feComposite in2="blur" operator="in"/>
      <feComposite in="SourceGraphic"/>
    </filter>
  </defs>
  <g id="Camada_1-2" data-name="Camada 1">
    <circle class="cls-1" cx="75.72" cy="75.71" r="59.29"/>
    <g>
      <path class="cls-2" d="M67.69,93.57l-7.29-10.46c-.3,.03-.76,.05-1.38,.05h-8.06v10.41h-6.63V57.86h14.69c3.09,0,5.79,.51,8.08,1.53,2.3,1.02,4.06,2.48,5.28,4.39,1.22,1.91,1.84,4.17,1.84,6.79s-.65,5-1.96,6.94c-1.31,1.94-3.19,3.38-5.64,4.34l8.21,11.73h-7.14Zm-2.4-28.26c-1.5-1.22-3.69-1.84-6.58-1.84h-7.75v14.23h7.75c2.89,0,5.08-.62,6.58-1.86,1.5-1.24,2.24-3,2.24-5.28s-.75-4.03-2.24-5.25Z"/>
      <path class="cls-2" d="M104.08,90.48c-2.02,1.92-4.96,3.09-8.8,3.5v5.71h-4.18v-5.66c-2.52-.17-4.9-.63-7.14-1.38s-4.03-1.7-5.36-2.86l2.3-5.15c1.26,1.02,2.79,1.88,4.59,2.58,1.8,.7,3.67,1.13,5.61,1.3v-10.2c-2.41-.58-4.43-1.22-6.04-1.91-1.62-.7-2.97-1.72-4.06-3.06s-1.63-3.12-1.63-5.33c0-2.75,1-5.1,3.01-7.04,2.01-1.94,4.91-3.09,8.72-3.47v-5.76h4.18v5.66c1.9,.1,3.76,.43,5.59,.97,1.82,.54,3.41,1.26,4.77,2.14l-2.09,5.15c-2.59-1.5-5.34-2.41-8.26-2.75v10.3c2.45,.58,4.48,1.21,6.09,1.89,1.61,.68,2.98,1.69,4.08,3.04,1.11,1.34,1.66,3.12,1.66,5.33,0,2.75-1.01,5.09-3.03,7.01Zm-16.81-20.07c.88,.68,2.16,1.26,3.83,1.73v-9.08c-1.73,.27-3.03,.82-3.88,1.63-.85,.82-1.28,1.82-1.28,3.01,0,1.12,.44,2.02,1.33,2.7Zm12.01,16.42c.87-.78,1.3-1.75,1.3-2.91s-.46-2.08-1.38-2.78c-.92-.7-2.23-1.28-3.93-1.76v9.03c1.8-.27,3.14-.8,4-1.58Z"/>
    </g>
  </g>
</svg>