<?xml version="1.0" encoding="UTF-8"?>
<svg id="Camada_2" data-name="Camada 2" xmlns="http://www.w3.org/2000/svg" viewBox="0 0 698.39 654.36">
  <defs>
    <style>
      .cls-1 {
        fill: #e76522;
        fill-rule: evenodd;
      }
    </style>
  </defs>
  <g id="Camada_1-2" data-name="Camada 1">
    <g>
      <path class="cls-1" d="M349.2,321.05c27.14-47.64,54.09-94.13,81.8-141.02,13.26-22.44,25.08-47.04,25.08-73.14,0-29.51-11.96-56.23-31.31-75.57C405.43,11.96,378.71,0,349.2,0s-56.23,11.96-75.57,31.31c-19.34,19.34-31.31,46.06-31.31,75.57,0,26.1,11.82,50.7,25.08,73.14,27.71,46.9,54.66,93.38,81.8,141.02h0Z"/>
      <path class="cls-1" d="M112.83,332.84c-18.27,2.14-36.06,6.68-51.84,15.92-29.37,17.2-48.99,44.68-56.97,75.2-7.98,30.52-4.31,64.09,12.89,93.46,17.2,29.37,44.68,48.99,75.2,56.97,30.52,7.98,64.09,4.31,93.46-12.89,25.97-15.21,43.57-41.32,58.17-67.59,30.05-54.06,60.15-107.17,91.23-161.07H112.83Z"/>
      <path class="cls-1" d="M637.4,348.76c-15.78-9.24-33.58-13.78-51.84-15.92h-222.14c31.07,53.91,61.17,107.01,91.22,161.07,14.6,26.27,32.2,52.38,58.17,67.59,29.37,17.2,62.93,20.86,93.46,12.89,30.52-7.98,58-27.6,75.2-56.97,17.2-29.37,20.87-62.94,12.89-93.46-7.98-30.52-27.6-58-56.97-75.2Z"/>
      <path class="cls-1" d="M585.56,321.05c18.27-2.14,36.06-6.68,51.84-15.92,29.37-17.2,48.99-44.68,56.97-75.2,7.98-30.52,4.31-64.09-12.89-93.46-17.2-29.37-44.68-48.99-75.2-56.97-30.52-7.98-64.09-4.31-93.46,12.89-25.97,15.21-43.57,41.32-58.17,67.59-30.05,54.06-60.15,107.17-91.23,161.07h222.14Z"/>
      <path class="cls-1" d="M60.99,305.12c15.78,9.24,33.58,13.78,51.84,15.92h222.14c-31.07-53.91-61.17-107.01-91.22-161.07-14.6-26.27-32.2-52.38-58.17-67.59-29.37-17.2-62.93-20.86-93.46-12.89-30.52,7.98-58,27.6-75.2,56.97C-.29,165.83-3.95,199.4,4.03,229.92c7.98,30.52,27.6,58,56.97,75.2Z"/>
      <path class="cls-1" d="M454.18,529.16c-3.83-19.33-13.07-37.71-23.18-54.82-27.71-46.9-54.66-93.38-81.8-141.02-27.14,47.64-54.09,94.13-81.8,141.02-10.5,17.77-20,36.92-23.54,57.08,30.38,9.97,114.09,30.71,210.32-2.26Z"/>
      <path class="cls-1" d="M453.97,568.62c1.37-6.83,2.11-13.9,2.11-21.14,0-.36-.05-.7-.06-1.06-40.12,13.29-77.83,17.96-110.67,17.96-46.17,0-82.66-9-102.96-15.47,.1,7.65,1.05,15.1,2.68,22.28,31.32,10.1,114,29.87,208.9-2.58Z"/>
      <path class="cls-1" d="M345.35,603.76c-39.78,0-72.39-6.69-93.66-12.68,5.35,11.98,12.78,22.82,21.93,31.97,19.34,19.34,46.06,31.31,75.57,31.31s56.23-11.96,75.57-31.31c9.83-9.83,17.73-21.59,23.15-34.63-37.09,11.31-71.95,15.34-102.57,15.34Z"/>
    </g>
  </g>
</svg>