<?xml version="1.0" encoding="UTF-8"?>
<svg id="Camada_2" data-name="Camada 2" xmlns="http://www.w3.org/2000/svg" viewBox="0 0 17.37 17.37">
  <defs>
    <style>
      .cls-1 {
        fill: #ff6514;
      }
    </style>
  </defs>
  <g id="Camada_1-2" data-name="Camada 1">
    <g>
      <path class="cls-1" d="M14.35,0H3.02C1.35,0,0,1.35,0,3.02V14.35c0,1.67,1.35,3.02,3.02,3.02H14.35c1.67,0,3.02-1.35,3.02-3.02V3.02c0-1.67-1.35-3.02-3.02-3.02Zm-3.06,14.44c-1.72,0-3.44,0-5.16,0-1.81,0-3.17-1.37-3.17-3.18,0-1.71,0-3.42,0-5.13,0-1.84,1.36-3.18,3.2-3.19,.85,0,1.71,0,2.56,0,.85,0,1.71,0,2.56,0,1.8,0,3.16,1.36,3.17,3.15,0,1.73,0,3.46,0,5.2,0,1.79-1.37,3.15-3.17,3.15Z"/>
      <path class="cls-1" d="M13.42,6.16c0-1.3-.88-2.18-2.17-2.19-1.7,0-3.39,0-5.09,0-1.27,0-2.16,.89-2.16,2.16,0,1.7,0,3.4,0,5.09,0,1.27,.89,2.17,2.15,2.17,1.71,0,3.42,0,5.13,0,1.25,0,2.13-.9,2.14-2.14,0-.85,0-1.71,0-2.56,0-.84,0-1.69,0-2.53Zm-4.75,5.12c-1.44-.03-2.58-1.2-2.55-2.63,.03-1.44,1.2-2.58,2.63-2.56,1.44,.03,2.58,1.2,2.56,2.63-.03,1.44-1.2,2.58-2.63,2.56Zm3.04-5.06c-.29,.01-.53-.22-.53-.51,0-.28,.21-.5,.49-.52,.29-.01,.53,.22,.53,.51,0,.28-.21,.5-.49,.52Z"/>
      <path class="cls-1" d="M8.69,7.13c-.87,0-1.55,.72-1.54,1.58,.01,.85,.7,1.53,1.55,1.53,.87,0,1.56-.7,1.56-1.56,0-.87-.71-1.56-1.57-1.55Z"/>
    </g>
  </g>
</svg>