<?xml version="1.0" encoding="UTF-8"?>
<svg id="Camada_2" data-name="Camada 2" xmlns="http://www.w3.org/2000/svg" viewBox="0 0 815.57 616.5">
  <defs>
    <style>
      .cls-1 {
        font-size: 48.57px;
      }

      .cls-1, .cls-2, .cls-3 {
        fill: #ff6514;
      }

      .cls-1, .cls-4, .cls-5, .cls-6, .cls-3 {
        font-family: MontserratRoman-SemiBold, Montserrat;
        font-variation-settings: 'wght' 600;
      }

      .cls-7, .cls-4, .cls-8 {
        fill: #fff;
      }

      .cls-4 {
        font-size: 26.37px;
      }

      .cls-5 {
        font-size: 34px;
      }

      .cls-5, .cls-6 {
        fill: #57575a;
      }

      .cls-8 {
        font-family: MontserratRoman-ExtraBold, Montserrat;
        font-size: 41.77px;
        font-variation-settings: 'wght' 800;
      }

      .cls-6 {
        font-size: 33.46px;
      }

      .cls-3 {
        font-size: 60.42px;
      }
    </style>
  </defs>
  <g id="Camada_1-2" data-name="Camada 1">
    <g>
      <path class="cls-2" d="M407.79,10.02c24.48,0,48.63,6.47,69.83,18.71l137.33,79.29c21.2,12.24,38.88,29.92,51.12,51.12,12.24,21.2,18.71,45.35,18.71,69.83v158.57c0,24.48-6.47,48.63-18.71,69.83-12.24,21.2-29.92,38.88-51.12,51.12l-137.33,79.29c-21.2,12.24-45.35,18.71-69.83,18.71s-48.63-6.47-69.83-18.71l-137.33-79.28c-21.2-12.24-38.88-29.92-51.12-51.12-12.24-21.2-18.71-45.35-18.71-69.83V228.96c0-24.48,6.47-48.63,18.71-69.83,12.24-21.2,29.92-38.88,51.12-51.12L337.96,28.73c21.2-12.24,45.35-18.71,69.83-18.71m0-10.02c-25.84,0-51.68,6.68-74.84,20.05L195.62,99.34c-46.31,26.74-74.84,76.15-74.84,129.63v158.57c0,53.47,28.53,102.89,74.84,129.63l137.33,79.28c23.16,13.37,49,20.05,74.84,20.05s51.68-6.68,74.84-20.05l137.33-79.29c46.31-26.74,74.84-76.15,74.84-129.63V228.96c0-53.47-28.53-102.89-74.84-129.63L482.62,20.05C459.47,6.69,433.62,0,407.79,0h0Z"/>
      <g>
        <text class="cls-1" transform="translate(306.1 535.59)"><tspan x="0" y="0">R$ 1.5mi</tspan></text>
        <text class="cls-6" transform="translate(364.84 481.55)"><tspan x="0" y="0">Total</tspan></text>
      </g>
      <g>
        <text class="cls-3" transform="translate(391.54 331.15)"><tspan x="0" y="0">+</tspan></text>
        <g>
          <path class="cls-2" d="M176.81,500.29c-15.62,0-31.03-4.13-44.56-11.94l-84.6-48.84c-27.49-15.87-44.56-45.45-44.56-77.18v-97.69c0-31.74,17.08-61.31,44.56-77.18l84.6-48.84c13.53-7.81,28.94-11.94,44.56-11.94s31.03,4.13,44.56,11.94l84.6,48.84c27.49,15.87,44.56,45.44,44.56,77.18v97.69c0,31.74-17.07,61.31-44.56,77.18l-84.6,48.84c-13.53,7.81-28.94,11.94-44.56,11.94Z"/>
          <path class="cls-7" d="M176.81,129.75c15.08,0,29.96,3.99,43.02,11.53l84.6,48.84c26.53,15.32,43.02,43.87,43.02,74.51v97.69c0,30.64-16.48,59.19-43.02,74.51l-84.6,48.84c-13.06,7.54-27.94,11.53-43.02,11.53s-29.96-3.99-43.02-11.53l-84.6-48.84c-26.53-15.32-43.02-43.87-43.02-74.51v-97.69c0-30.64,16.48-59.19,43.02-74.51l84.6-48.84c13.06-7.54,27.94-11.53,43.02-11.53m0-6.17c-15.92,0-31.84,4.12-46.11,12.35l-84.6,48.84C17.58,201.25,0,231.69,0,264.63v97.69c0,32.94,17.58,63.39,46.11,79.86l84.6,48.84c14.27,8.24,30.19,12.35,46.11,12.35s31.84-4.12,46.11-12.35l84.6-48.84c28.53-16.47,46.11-46.91,46.11-79.86v-97.69c0-32.94-17.58-63.39-46.11-79.86l-84.6-48.84c-14.27-8.24-30.19-12.35-46.11-12.35h0Z"/>
        </g>
        <g>
          <path class="cls-2" d="M638.76,500.29c-15.62,0-31.03-4.13-44.56-11.94l-84.6-48.84c-27.49-15.87-44.56-45.45-44.56-77.18v-97.69c0-31.74,17.08-61.31,44.56-77.18l84.6-48.84c13.53-7.81,28.94-11.94,44.56-11.94s31.03,4.13,44.56,11.94l84.6,48.84c27.49,15.87,44.56,45.44,44.56,77.18v97.69c0,31.74-17.08,61.31-44.56,77.18l-84.6,48.84c-13.53,7.81-28.94,11.94-44.56,11.94Z"/>
          <path class="cls-7" d="M638.76,129.75c15.08,0,29.96,3.99,43.02,11.53l84.6,48.84c26.53,15.32,43.02,43.87,43.02,74.51v97.69c0,30.64-16.48,59.19-43.02,74.51l-84.6,48.84c-13.06,7.54-27.94,11.53-43.02,11.53s-29.96-3.99-43.02-11.53l-84.6-48.84c-26.53-15.32-43.02-43.87-43.02-74.51v-97.69c0-30.64,16.48-59.19,43.02-74.51l84.6-48.84c13.06-7.54,27.94-11.53,43.02-11.53m0-6.17c-15.92,0-31.84,4.12-46.11,12.35l-84.6,48.84c-28.53,16.47-46.11,46.91-46.11,79.86v97.69c0,32.94,17.58,63.39,46.11,79.86l84.6,48.84c14.27,8.24,30.19,12.35,46.11,12.35s31.84-4.12,46.11-12.35l84.6-48.84c28.53-16.47,46.11-46.91,46.11-79.86v-97.69c0-32.94-17.58-63.39-46.11-79.86l-84.6-48.84c-14.27-8.24-30.19-12.35-46.11-12.35h0Z"/>
        </g>
        <g>
          <text class="cls-8" transform="translate(65.53 271.94)"><tspan x="0" y="0">R$ 500mil</tspan></text>
          <text class="cls-4" transform="translate(66.42 310.83)"><tspan x="0" y="0">apoio técnico às</tspan><tspan x="-9.67" y="31.65">organizações que</tspan><tspan x="7.53" y="63.3">desenvolvam o</tspan><tspan x="42.74" y="94.95">programa</tspan></text>
        </g>
        <g>
          <text class="cls-8" transform="translate(566.04 287.77)"><tspan x="0" y="0">R$ 1mi</tspan></text>
          <text class="cls-4" transform="translate(521.6 326.65)"><tspan x="0" y="0">fundo garantidor</tspan><tspan x="23.47" y="31.65">para casos de</tspan><tspan x="19.09" y="63.3">inadimplência</tspan></text>
        </g>
      </g>
      <text class="cls-5" transform="translate(341.33 133.17)"><tspan x="0" y="0">Doação</tspan></text>
    </g>
  </g>
</svg>