<?xml version="1.0" encoding="UTF-8"?>
<svg id="Camada_2" data-name="Camada 2" xmlns="http://www.w3.org/2000/svg" viewBox="0 0 17.79 17.79">
  <defs>
    <style>
      .cls-1 {
        fill: #ff6514;
      }
    </style>
  </defs>
  <g id="Camada_1-2" data-name="Camada 1">
    <g id="OWLTDt.tif">
      <path class="cls-1" d="M8.87,17.79c-2.11,0-4.21,0-6.32,0C1.03,17.79,0,16.75,0,15.23,0,11.01,0,6.78,0,2.55,0,1.03,1.03,0,2.55,0,6.79,0,11.02,0,15.26,0c1.49,0,2.53,1.04,2.53,2.54,0,4.24,0,8.47,0,12.71,0,1.5-1.04,2.54-2.53,2.54-2.13,0-4.26,0-6.39,0Zm.6-9.88c0-.19,0-.28,0-.37,0-.45-.07-.52-.53-.52-.45,0-.9,0-1.35,0-.33,0-.46,.15-.46,.46,0,.24,0,.49,0,.73,0,1.9,0,3.8,0,5.7,0,.47,.08,.55,.54,.55,.43,0,.86,0,1.29,0,.42,0,.51-.09,.51-.51,0-1.09,0-2.18,0-3.27,0-.42,.08-.83,.3-1.2,.27-.44,.68-.62,1.18-.56,.49,.05,.8,.34,.94,.8,.09,.3,.12,.61,.12,.93,0,1.11,0,2.22,0,3.33,0,.32,.14,.47,.46,.47,.47,0,.95,0,1.42,0,.44,0,.52-.09,.52-.54,0-.73,0-1.46,0-2.19,0-.84,.04-1.69-.1-2.53-.19-1.22-.82-2.01-1.85-2.21-1.11-.22-2.15-.12-2.99,.92Zm-5.75,2.8c0,1.08,0,2.15,0,3.23,0,.41,.12,.52,.51,.52,.45,0,.9,0,1.35,0,.36,0,.48-.12,.48-.48,0-2.16,0-4.33,0-6.49,0-.36-.12-.47-.49-.47-.43,0-.86,0-1.28,0-.48,0-.57,.09-.57,.57,0,1.04,0,2.08,0,3.12Zm-.34-5.85c0,.83,.66,1.51,1.49,1.52,.84,.01,1.53-.67,1.53-1.52,0-.83-.66-1.51-1.49-1.51-.84,0-1.53,.67-1.53,1.51Z"/>
    </g>
  </g>
</svg>