<?xml version="1.0" encoding="UTF-8"?>
<svg id="Camada_2" data-name="Camada 2" xmlns="http://www.w3.org/2000/svg" viewBox="0 0 949.06 481.53">
  <defs>
    <style>
      .cls-1 {
        fill: #fff;
      }

      .cls-2 {
        fill: #e76522;
      }

      .cls-3 {
        fill: #f2ae13;
      }

      .cls-4 {
        fill: none;
        stroke: #f2ae13;
        stroke-miterlimit: 10;
        stroke-width: 3px;
      }

      .cls-5 {
        fill: #57575a;
      }
    </style>
  </defs>
  <g id="Camada_1-2" data-name="Camada 1">
    <g>
      <g>
        <g>
          <path class="cls-3" d="M110.02,176.79c-4.19,7.58-8.18,14.85-12.24,22.09-3.01,5.37-8.88,7.75-14.52,5.99-5-1.56-8.42-6.01-8.7-11.31-.26-4.93,2.73-9.98,7.52-11.74,8.99-3.29,18.09-6.29,27.14-9.43,.68-.23,1.32-.15,1.97,.08,8.82,3.04,17.68,5.99,26.46,9.15,5.81,2.1,8.92,8.14,7.62,14.2-1.23,5.74-6.63,9.9-12.64,9.57-4.63-.26-8.08-2.56-10.32-6.6-3.74-6.72-7.45-13.46-11.17-20.19-.29-.52-.61-1.01-1.1-1.82Z"/>
          <path class="cls-3" d="M92.44,166.33c.23-5.65,3-10.82,8.74-14.18,1.41-.82,1.38-1.59,.77-2.77-1.25-2.41-3.22-3.8-5.91-4.08-1.13-.12-2.23-.29-2.06-1.7,.17-1.39,1.37-1.38,2.43-1.24,4.02,.54,6.94,2.63,8.45,6.41,.44,1.11,.84,1.53,2.05,1.23,2.1-.52,4.25-.54,6.36,0,1.13,.28,1.54-.11,1.95-1.14,1.53-3.87,4.49-5.98,8.58-6.5,1.09-.14,2.25-.06,2.35,1.35,.09,1.28-.91,1.49-1.99,1.59-2.69,.25-4.66,1.64-5.96,4.01-.7,1.28-.58,2.05,.85,2.89,7.13,4.16,10.28,12.63,7.81,20.43-.44,1.39-.87,1.99-2.52,1.35-3.81-1.48-7.73-2.66-11.57-4.06-1.81-.66-3.51-.69-5.34-.03-3.95,1.44-7.97,2.71-11.92,4.16-1.23,.45-1.72,.21-2.09-1.02-.57-1.89-.99-3.78-.99-6.69Z"/>
          <path class="cls-3" d="M130.2,208.09c-.19,1.38-.88,1.78-2.15,1.78-11.98-.05-23.97-.03-35.95-.03-.37,0-.74,.04-1.1-.04-.73-.15-.89-.84-.99-1.4-.11-.6,.59-.51,.93-.6,4.51-1.28,7.73-4.1,9.8-8.23,.57-1.15,1.27-1.53,2.54-1.51,4.65,.08,9.29,.04,13.94,.03,.75,0,1.41-.01,1.82,.84,2.28,4.8,5.97,7.95,11.16,9.16Z"/>
          <path class="cls-3" d="M92.63,212.87h34.52c.26,.57-.29,.83-.57,1.16-2.41,2.78-5.32,4.86-8.77,6.12-2.92,1.07-5.04,2.94-6.18,5.85-.29,.72-.61,1.38-1.47,1.42-.97,.05-1.33-.65-1.64-1.44-1.15-2.9-3.28-4.76-6.19-5.84-3.84-1.43-7.01-3.78-9.68-7.27Z"/>
          <path class="cls-3" d="M110.07,182.76c2.34,4.22,4.5,8.13,6.79,12.26h-13.57c2.24-4.05,4.42-8,6.78-12.26Z"/>
        </g>
        <g>
          <path class="cls-3" d="M214.68,176.79c-4.19,7.58-8.18,14.85-12.24,22.09-3.01,5.37-8.88,7.75-14.52,5.99-5-1.56-8.42-6.01-8.7-11.31-.26-4.93,2.73-9.98,7.52-11.74,8.99-3.29,18.09-6.29,27.14-9.43,.68-.23,1.32-.15,1.97,.08,8.82,3.04,17.68,5.99,26.46,9.15,5.81,2.1,8.92,8.14,7.62,14.2-1.23,5.74-6.63,9.9-12.64,9.57-4.63-.26-8.08-2.56-10.32-6.6-3.74-6.72-7.45-13.46-11.17-20.19-.29-.52-.61-1.01-1.1-1.82Z"/>
          <path class="cls-3" d="M197.1,166.33c.23-5.65,3-10.82,8.74-14.18,1.41-.82,1.38-1.59,.77-2.77-1.25-2.41-3.22-3.8-5.91-4.08-1.13-.12-2.23-.29-2.06-1.7,.17-1.39,1.37-1.38,2.43-1.24,4.02,.54,6.94,2.63,8.45,6.41,.44,1.11,.84,1.53,2.05,1.23,2.1-.52,4.25-.54,6.36,0,1.13,.28,1.54-.11,1.95-1.14,1.53-3.87,4.49-5.98,8.58-6.5,1.09-.14,2.25-.06,2.35,1.35,.09,1.28-.91,1.49-1.99,1.59-2.69,.25-4.66,1.64-5.96,4.01-.7,1.28-.58,2.05,.85,2.89,7.13,4.16,10.28,12.63,7.81,20.43-.44,1.39-.87,1.99-2.52,1.35-3.81-1.48-7.73-2.66-11.57-4.06-1.81-.66-3.51-.69-5.34-.03-3.95,1.44-7.97,2.71-11.92,4.16-1.23,.45-1.72,.21-2.09-1.02-.57-1.89-.99-3.78-.99-6.69Z"/>
          <path class="cls-3" d="M234.85,208.09c-.19,1.38-.88,1.78-2.15,1.78-11.98-.05-23.97-.03-35.95-.03-.37,0-.74,.04-1.1-.04-.73-.15-.89-.84-.99-1.4-.11-.6,.59-.51,.93-.6,4.51-1.28,7.73-4.1,9.8-8.23,.57-1.15,1.27-1.53,2.54-1.51,4.65,.08,9.29,.04,13.94,.03,.75,0,1.41-.01,1.82,.84,2.28,4.8,5.97,7.95,11.16,9.16Z"/>
          <path class="cls-3" d="M197.29,212.87h34.52c.26,.57-.29,.83-.57,1.16-2.41,2.78-5.32,4.86-8.77,6.12-2.92,1.07-5.04,2.94-6.18,5.85-.29,.72-.61,1.38-1.47,1.42-.97,.05-1.33-.65-1.64-1.44-1.15-2.9-3.28-4.76-6.19-5.84-3.84-1.43-7.01-3.78-9.68-7.27Z"/>
          <path class="cls-3" d="M214.72,182.76c2.34,4.22,4.5,8.13,6.79,12.26h-13.57c2.24-4.05,4.42-8,6.78-12.26Z"/>
        </g>
        <g>
          <path class="cls-3" d="M110.02,286.63c-4.19,7.58-8.18,14.85-12.24,22.09-3.01,5.37-8.88,7.75-14.52,5.99-5-1.56-8.42-6.01-8.7-11.31-.26-4.93,2.73-9.98,7.52-11.74,8.99-3.29,18.09-6.29,27.14-9.43,.68-.23,1.32-.15,1.97,.08,8.82,3.04,17.68,5.99,26.46,9.15,5.81,2.1,8.92,8.14,7.62,14.2-1.23,5.74-6.63,9.9-12.64,9.57-4.63-.26-8.08-2.56-10.32-6.6-3.74-6.72-7.45-13.46-11.17-20.19-.29-.52-.61-1.01-1.1-1.82Z"/>
          <path class="cls-3" d="M92.44,276.16c.23-5.65,3-10.82,8.74-14.18,1.41-.82,1.38-1.59,.77-2.77-1.25-2.41-3.22-3.8-5.91-4.08-1.13-.12-2.23-.29-2.06-1.7,.17-1.39,1.37-1.38,2.43-1.24,4.02,.54,6.94,2.63,8.45,6.41,.44,1.11,.84,1.53,2.05,1.23,2.1-.52,4.25-.54,6.36,0,1.13,.28,1.54-.11,1.95-1.14,1.53-3.87,4.49-5.98,8.58-6.5,1.09-.14,2.25-.06,2.35,1.35,.09,1.28-.91,1.49-1.99,1.59-2.69,.25-4.66,1.64-5.96,4.01-.7,1.28-.58,2.05,.85,2.89,7.13,4.16,10.28,12.63,7.81,20.43-.44,1.39-.87,1.99-2.52,1.35-3.81-1.48-7.73-2.66-11.57-4.06-1.81-.66-3.51-.69-5.34-.03-3.95,1.44-7.97,2.71-11.92,4.16-1.23,.45-1.72,.21-2.09-1.02-.57-1.89-.99-3.78-.99-6.69Z"/>
          <path class="cls-3" d="M130.2,317.93c-.19,1.38-.88,1.78-2.15,1.78-11.98-.05-23.97-.03-35.95-.03-.37,0-.74,.04-1.1-.04-.73-.15-.89-.84-.99-1.4-.11-.6,.59-.51,.93-.6,4.51-1.28,7.73-4.1,9.8-8.23,.57-1.15,1.27-1.53,2.54-1.51,4.65,.08,9.29,.04,13.94,.03,.75,0,1.41-.01,1.82,.84,2.28,4.8,5.97,7.95,11.16,9.16Z"/>
          <path class="cls-3" d="M92.63,322.71h34.52c.26,.57-.29,.83-.57,1.16-2.41,2.78-5.32,4.86-8.77,6.12-2.92,1.07-5.04,2.94-6.18,5.85-.29,.72-.61,1.38-1.47,1.42-.97,.05-1.33-.65-1.64-1.44-1.15-2.9-3.28-4.76-6.19-5.84-3.84-1.43-7.01-3.78-9.68-7.27Z"/>
          <path class="cls-3" d="M110.07,292.6c2.34,4.22,4.5,8.13,6.79,12.26h-13.57c2.24-4.05,4.42-8,6.78-12.26Z"/>
        </g>
        <g>
          <path class="cls-3" d="M214.68,286.63c-4.19,7.58-8.18,14.85-12.24,22.09-3.01,5.37-8.88,7.75-14.52,5.99-5-1.56-8.42-6.01-8.7-11.31-.26-4.93,2.73-9.98,7.52-11.74,8.99-3.29,18.09-6.29,27.14-9.43,.68-.23,1.32-.15,1.97,.08,8.82,3.04,17.68,5.99,26.46,9.15,5.81,2.1,8.92,8.14,7.62,14.2-1.23,5.74-6.63,9.9-12.64,9.57-4.63-.26-8.08-2.56-10.32-6.6-3.74-6.72-7.45-13.46-11.17-20.19-.29-.52-.61-1.01-1.1-1.82Z"/>
          <path class="cls-3" d="M197.1,276.16c.23-5.65,3-10.82,8.74-14.18,1.41-.82,1.38-1.59,.77-2.77-1.25-2.41-3.22-3.8-5.91-4.08-1.13-.12-2.23-.29-2.06-1.7,.17-1.39,1.37-1.38,2.43-1.24,4.02,.54,6.94,2.63,8.45,6.41,.44,1.11,.84,1.53,2.05,1.23,2.1-.52,4.25-.54,6.36,0,1.13,.28,1.54-.11,1.95-1.14,1.53-3.87,4.49-5.98,8.58-6.5,1.09-.14,2.25-.06,2.35,1.35,.09,1.28-.91,1.49-1.99,1.59-2.69,.25-4.66,1.64-5.96,4.01-.7,1.28-.58,2.05,.85,2.89,7.13,4.16,10.28,12.63,7.81,20.43-.44,1.39-.87,1.99-2.52,1.35-3.81-1.48-7.73-2.66-11.57-4.06-1.81-.66-3.51-.69-5.34-.03-3.95,1.44-7.97,2.71-11.92,4.16-1.23,.45-1.72,.21-2.09-1.02-.57-1.89-.99-3.78-.99-6.69Z"/>
          <path class="cls-3" d="M234.85,317.93c-.19,1.38-.88,1.78-2.15,1.78-11.98-.05-23.97-.03-35.95-.03-.37,0-.74,.04-1.1-.04-.73-.15-.89-.84-.99-1.4-.11-.6,.59-.51,.93-.6,4.51-1.28,7.73-4.1,9.8-8.23,.57-1.15,1.27-1.53,2.54-1.51,4.65,.08,9.29,.04,13.94,.03,.75,0,1.41-.01,1.82,.84,2.28,4.8,5.97,7.95,11.16,9.16Z"/>
          <path class="cls-3" d="M197.29,322.71h34.52c.26,.57-.29,.83-.57,1.16-2.41,2.78-5.32,4.86-8.77,6.12-2.92,1.07-5.04,2.94-6.18,5.85-.29,.72-.61,1.38-1.47,1.42-.97,.05-1.33-.65-1.64-1.44-1.15-2.9-3.28-4.76-6.19-5.84-3.84-1.43-7.01-3.78-9.68-7.27Z"/>
          <path class="cls-3" d="M214.72,292.6c2.34,4.22,4.5,8.13,6.79,12.26h-13.57c2.24-4.05,4.42-8,6.78-12.26Z"/>
        </g>
      </g>
      <g>
        <path class="cls-3" d="M747.55,202.03c1.54,3.64,2.22,7.12,.41,10.63-1.02,1.98-2.53,3.49-4.53,4.48-3.62,1.79-8.94,1.73-13.04-3.37-1.79,2.5-4.2,3.98-7.24,4.36-2.22,.27-4.31-.16-6.24-1.26-2.55-1.45-4.14-3.64-4.87-6.47-.74-2.85,.14-5.48,1.18-8.27-1.31,.39-2.45,.78-3.61,1.05-4.66,1.09-9.24-1-11.39-5.16-2.16-4.19-1.22-9.27,2.42-12.38,.87-.74,.66-.97-.07-1.58-3.54-2.99-4.51-8.1-2.4-12.28,2.11-4.19,6.74-6.35,11.33-5.26,1.19,.28,2.34,.68,3.63,1.06-.38-1.24-.81-2.38-1.07-3.57-1.05-4.75,1.12-9.34,5.33-11.43,4.27-2.12,9.26-1.03,12.45,2.71,.17,.2,.34,.4,.58,.68,1.83-2.57,4.29-4.05,7.38-4.4,2.22-.25,4.31,.22,6.23,1.33,4.74,2.75,5.79,6.93,3.65,14.68,.93-.3,1.77-.59,2.62-.83,5-1.45,9.8,.4,12.17,4.68,2.37,4.28,1.43,9.39-2.48,12.79-.94,.82-.19,1.01,.24,1.41,3.04,2.83,4.18,6.31,3.13,10.32-1.03,3.92-3.67,6.34-7.61,7.29-2.08,.5-4.12,.18-6.11-.5-.61-.21-1.22-.42-2.1-.73Zm-17.06-8.7c4.62,.03,8.48-3.74,8.53-8.34,.05-4.68-3.75-8.57-8.41-8.6-4.63-.02-8.48,3.74-8.53,8.34-.05,4.68,3.75,8.57,8.41,8.6Z"/>
        <path class="cls-3" d="M856.95,202.03c1.54,3.64,2.22,7.12,.41,10.63-1.02,1.98-2.53,3.49-4.53,4.48-3.62,1.79-8.94,1.73-13.04-3.37-1.79,2.5-4.2,3.98-7.24,4.36-2.22,.27-4.31-.16-6.24-1.26-2.55-1.45-4.14-3.64-4.87-6.47-.74-2.85,.14-5.48,1.18-8.27-1.31,.39-2.45,.78-3.61,1.05-4.66,1.09-9.24-1-11.39-5.16-2.16-4.19-1.22-9.27,2.42-12.38,.87-.74,.66-.97-.07-1.58-3.54-2.99-4.51-8.1-2.4-12.28,2.11-4.19,6.74-6.35,11.33-5.26,1.19,.28,2.34,.68,3.63,1.06-.38-1.24-.81-2.38-1.07-3.57-1.05-4.75,1.12-9.34,5.33-11.43,4.27-2.12,9.26-1.03,12.45,2.71,.17,.2,.34,.4,.58,.68,1.83-2.57,4.29-4.05,7.38-4.4,2.22-.25,4.31,.22,6.23,1.33,4.74,2.75,5.79,6.93,3.65,14.68,.93-.3,1.77-.59,2.62-.83,5-1.45,9.8,.4,12.17,4.68,2.37,4.28,1.43,9.39-2.48,12.79-.94,.82-.19,1.01,.24,1.41,3.04,2.83,4.18,6.31,3.13,10.32-1.03,3.92-3.67,6.34-7.61,7.29-2.08,.5-4.12,.18-6.11-.5-.61-.21-1.22-.42-2.1-.73Zm-17.06-8.7c4.62,.03,8.48-3.74,8.53-8.34,.05-4.68-3.75-8.57-8.41-8.6-4.63-.02-8.48,3.74-8.53,8.34-.05,4.68,3.75,8.57,8.41,8.6Z"/>
        <path class="cls-3" d="M747.55,311.86c1.54,3.64,2.22,7.12,.41,10.63-1.02,1.98-2.53,3.49-4.53,4.48-3.62,1.79-8.94,1.73-13.04-3.37-1.79,2.5-4.2,3.98-7.24,4.36-2.22,.27-4.31-.16-6.24-1.26-2.55-1.45-4.14-3.64-4.87-6.47-.74-2.85,.14-5.48,1.18-8.27-1.31,.39-2.45,.78-3.61,1.05-4.66,1.09-9.24-1-11.39-5.16-2.16-4.19-1.22-9.27,2.42-12.38,.87-.74,.66-.97-.07-1.58-3.54-2.99-4.51-8.1-2.4-12.28,2.11-4.19,6.74-6.35,11.33-5.26,1.19,.28,2.34,.68,3.63,1.06-.38-1.24-.81-2.38-1.07-3.57-1.05-4.75,1.12-9.34,5.33-11.43,4.27-2.12,9.26-1.03,12.45,2.71,.17,.2,.34,.4,.58,.68,1.83-2.57,4.29-4.05,7.38-4.4,2.22-.25,4.31,.22,6.23,1.33,4.74,2.75,5.79,6.93,3.65,14.68,.93-.3,1.77-.59,2.62-.83,5-1.45,9.8,.4,12.17,4.68,2.37,4.28,1.43,9.39-2.48,12.79-.94,.82-.19,1.01,.24,1.41,3.04,2.83,4.18,6.31,3.13,10.32-1.03,3.92-3.67,6.34-7.61,7.29-2.08,.5-4.12,.18-6.11-.5-.61-.21-1.22-.42-2.1-.73Zm-17.06-8.7c4.62,.03,8.48-3.74,8.53-8.34,.05-4.68-3.75-8.57-8.41-8.6-4.63-.02-8.48,3.74-8.53,8.34-.05,4.68,3.75,8.57,8.41,8.6Z"/>
        <path class="cls-3" d="M856.95,311.86c1.54,3.64,2.22,7.12,.41,10.63-1.02,1.98-2.53,3.49-4.53,4.48-3.62,1.79-8.94,1.73-13.04-3.37-1.79,2.5-4.2,3.98-7.24,4.36-2.22,.27-4.31-.16-6.24-1.26-2.55-1.45-4.14-3.64-4.87-6.47-.74-2.85,.14-5.48,1.18-8.27-1.31,.39-2.45,.78-3.61,1.05-4.66,1.09-9.24-1-11.39-5.16-2.16-4.19-1.22-9.27,2.42-12.38,.87-.74,.66-.97-.07-1.58-3.54-2.99-4.51-8.1-2.4-12.28,2.11-4.19,6.74-6.35,11.33-5.26,1.19,.28,2.34,.68,3.63,1.06-.38-1.24-.81-2.38-1.07-3.57-1.05-4.75,1.12-9.34,5.33-11.43,4.27-2.12,9.26-1.03,12.45,2.71,.17,.2,.34,.4,.58,.68,1.83-2.57,4.29-4.05,7.38-4.4,2.22-.25,4.31,.22,6.23,1.33,4.74,2.75,5.79,6.93,3.65,14.68,.93-.3,1.77-.59,2.62-.83,5-1.45,9.8,.4,12.17,4.68,2.37,4.28,1.43,9.39-2.48,12.79-.94,.82-.19,1.01,.24,1.41,3.04,2.83,4.18,6.31,3.13,10.32-1.03,3.92-3.67,6.34-7.61,7.29-2.08,.5-4.12,.18-6.11-.5-.61-.21-1.22-.42-2.1-.73Zm-17.06-8.7c4.62,.03,8.48-3.74,8.53-8.34,.05-4.68-3.75-8.57-8.41-8.6-4.63-.02-8.48,3.74-8.53,8.34-.05,4.68,3.75,8.57,8.41,8.6Z"/>
      </g>
      <path class="cls-2" d="M166.76,79.01c42.94,0,83.31,16.72,113.68,47.09,30.36,30.36,47.09,70.74,47.09,113.68s-16.72,83.31-47.09,113.68c-30.36,30.36-70.74,47.09-113.68,47.09s-83.31-16.72-113.68-47.09S6,282.72,6,239.77s16.72-83.31,47.09-113.68,70.74-47.09,113.68-47.09m0-6C74.66,73.01,0,147.67,0,239.77s74.66,166.76,166.76,166.76,166.76-74.66,166.76-166.76S258.87,73.01,166.76,73.01h0Z"/>
      <circle class="cls-2" cx="475.24" cy="239.78" r="166.76"/>
      <path class="cls-2" d="M782.29,79.01c42.94,0,83.31,16.72,113.68,47.09s47.09,70.74,47.09,113.68-16.72,83.31-47.09,113.68-70.74,47.09-113.68,47.09-83.31-16.72-113.68-47.09c-30.36-30.36-47.09-70.74-47.09-113.68s16.72-83.31,47.09-113.68c30.36-30.36,70.74-47.09,113.68-47.09m0-6c-92.1,0-166.76,74.66-166.76,166.76s74.66,166.76,166.76,166.76,166.76-74.66,166.76-166.76-74.66-166.76-166.76-166.76h0Z"/>
      <g>
        <path class="cls-2" d="M780.98,402.82c-.89,0-1.77-.05-2.63-.13-6.57,30.84-34.02,54.06-66.79,54.06H208.55c-14.29,0-27.25-7.96-33.81-20.77l-5.34,2.73c7.59,14.83,22.59,24.04,39.15,24.04h503.02c36.14,0,66.32-25.94,72.93-60.18-1.16,.16-2.34,.25-3.51,.25Z"/>
        <polygon class="cls-2" points="167.61 418.8 164.11 447.61 173.01 438.57 185.28 441.82 167.61 418.8"/>
      </g>
      <g>
        <path class="cls-2" d="M741.92,19.8H238.9c-34.93,0-64.3,24.24-72.19,56.78,2.04,.25,3.99,.71,5.84,1.37,7.27-29.89,34.25-52.16,66.35-52.16h503.02c14.29,0,27.25,7.96,33.81,20.77l5.34-2.73c-7.59-14.83-22.59-24.04-39.15-24.04Z"/>
        <polygon class="cls-2" points="782.86 63.75 786.36 34.94 777.46 43.98 765.19 40.73 782.86 63.75"/>
      </g>
      <g>
        <g>
          <circle class="cls-1" cx="475.24" cy="459.65" r="19.63"/>
          <path class="cls-2" d="M475.24,442.28c9.58,0,17.37,7.79,17.37,17.37s-7.79,17.37-17.37,17.37-17.37-7.79-17.37-17.37,7.79-17.37,17.37-17.37m0-4.51c-12.09,0-21.88,9.8-21.88,21.88s9.8,21.88,21.88,21.88,21.88-9.8,21.88-21.88-9.8-21.88-21.88-21.88h0Z"/>
        </g>
        <g>
          <path class="cls-5" d="M472.52,466.26l-2.59-3.72c-.11,.01-.27,.02-.49,.02h-2.87v3.7h-2.36v-12.7h5.22c1.1,0,2.06,.18,2.87,.54,.82,.36,1.44,.88,1.88,1.56,.44,.68,.65,1.48,.65,2.41s-.23,1.78-.7,2.47c-.47,.69-1.13,1.2-2,1.54l2.92,4.17h-2.54Zm-.85-10.05c-.53-.44-1.31-.65-2.34-.65h-2.76v5.06h2.76c1.03,0,1.81-.22,2.34-.66,.53-.44,.8-1.07,.8-1.88s-.27-1.43-.8-1.87Z"/>
          <path class="cls-5" d="M485.46,465.16c-.72,.68-1.76,1.1-3.13,1.24v2.03h-1.49v-2.01c-.89-.06-1.74-.22-2.54-.49s-1.43-.6-1.9-1.02l.82-1.83c.45,.36,.99,.67,1.63,.92,.64,.25,1.31,.4,1.99,.46v-3.63c-.86-.21-1.57-.43-2.15-.68-.57-.25-1.06-.61-1.44-1.09s-.58-1.11-.58-1.9c0-.98,.36-1.81,1.07-2.5,.71-.69,1.75-1.1,3.1-1.23v-2.05h1.49v2.01c.68,.04,1.34,.15,1.99,.34,.65,.19,1.21,.45,1.7,.76l-.74,1.83c-.92-.53-1.9-.86-2.94-.98v3.66c.87,.21,1.59,.43,2.17,.67,.57,.24,1.06,.6,1.45,1.08,.39,.48,.59,1.11,.59,1.9,0,.98-.36,1.81-1.08,2.49Zm-5.98-7.14c.31,.24,.77,.45,1.36,.62v-3.23c-.62,.1-1.08,.29-1.38,.58-.3,.29-.45,.65-.45,1.07,0,.4,.16,.72,.47,.96Zm4.27,5.84c.31-.28,.46-.62,.46-1.03s-.16-.74-.49-.99c-.33-.25-.79-.46-1.4-.63v3.21c.64-.1,1.12-.28,1.42-.56Z"/>
        </g>
      </g>
      <g>
        <g>
          <circle class="cls-1" cx="475.24" cy="21.88" r="19.63"/>
          <path class="cls-2" d="M475.24,4.51c9.58,0,17.37,7.79,17.37,17.37s-7.79,17.37-17.37,17.37-17.37-7.79-17.37-17.37,7.79-17.37,17.37-17.37m0-4.51c-12.09,0-21.88,9.8-21.88,21.88s9.8,21.88,21.88,21.88,21.88-9.8,21.88-21.88S487.32,0,475.24,0h0Z"/>
        </g>
        <g>
          <path class="cls-5" d="M472.52,28.49l-2.59-3.72c-.11,.01-.27,.02-.49,.02h-2.87v3.7h-2.36V15.79h5.22c1.1,0,2.06,.18,2.87,.54,.82,.36,1.44,.88,1.88,1.56,.44,.68,.65,1.48,.65,2.41s-.23,1.78-.7,2.47c-.47,.69-1.13,1.2-2,1.54l2.92,4.17h-2.54Zm-.85-10.05c-.53-.44-1.31-.65-2.34-.65h-2.76v5.06h2.76c1.03,0,1.81-.22,2.34-.66,.53-.44,.8-1.07,.8-1.88s-.27-1.43-.8-1.87Z"/>
          <path class="cls-5" d="M485.46,27.39c-.72,.68-1.76,1.1-3.13,1.24v2.03h-1.49v-2.01c-.89-.06-1.74-.22-2.54-.49s-1.43-.6-1.9-1.02l.82-1.83c.45,.36,.99,.67,1.63,.92,.64,.25,1.31,.4,1.99,.46v-3.63c-.86-.21-1.57-.43-2.15-.68-.57-.25-1.06-.61-1.44-1.09s-.58-1.11-.58-1.9c0-.98,.36-1.81,1.07-2.5,.71-.69,1.75-1.1,3.1-1.23v-2.05h1.49v2.01c.68,.04,1.34,.15,1.99,.34,.65,.19,1.21,.45,1.7,.76l-.74,1.83c-.92-.53-1.9-.86-2.94-.98v3.66c.87,.21,1.59,.43,2.17,.67,.57,.24,1.06,.6,1.45,1.08,.39,.48,.59,1.11,.59,1.9,0,.98-.36,1.81-1.08,2.49Zm-5.98-7.14c.31,.24,.77,.45,1.36,.62v-3.23c-.62,.1-1.08,.29-1.38,.58-.3,.29-.45,.65-.45,1.07,0,.4,.16,.72,.47,.96Zm4.27,5.84c.31-.28,.46-.62,.46-1.03s-.16-.74-.49-.99c-.33-.25-.79-.46-1.4-.63v3.21c.64-.1,1.12-.28,1.42-.56Z"/>
        </g>
      </g>
      <circle class="cls-4" cx="475.24" cy="239.78" r="154.06"/>
    </g>
  </g>
</svg>