<?xml version="1.0" encoding="UTF-8"?>
<svg id="Camada_2" data-name="Camada 2" xmlns="http://www.w3.org/2000/svg" viewBox="0 0 836.47 318.82">
  <defs>
    <style>
      .cls-1 {
        fill: #fff;
      }

      .cls-2 {
        fill: #e76522;
      }

      .cls-3 {
        fill: none;
        stroke: #e76522;
        stroke-miterlimit: 10;
        stroke-width: 6px;
      }

      .cls-4 {
        fill: #57575a;
      }
    </style>
  </defs>
  <g id="Camada_1-2" data-name="Camada 1">
    <line class="cls-3" x1="230.82" y1="115.41" x2="608.57" y2="115.41"/>
    <path class="cls-2" d="M115.41,6c29.22,0,56.7,11.38,77.37,32.05,20.67,20.67,32.05,48.14,32.05,77.37s-11.38,56.7-32.05,77.37c-20.67,20.67-48.14,32.05-77.37,32.05s-56.7-11.38-77.37-32.05C17.38,172.11,6,144.64,6,115.41S17.38,58.71,38.05,38.05C58.71,17.38,86.19,6,115.41,6m0-6C51.67,0,0,51.67,0,115.41s51.67,115.41,115.41,115.41,115.41-51.67,115.41-115.41S179.15,0,115.41,0h0Z"/>
    <circle class="cls-2" cx="418.24" cy="115.41" r="115.41"/>
    <path class="cls-2" d="M721.06,6c29.22,0,56.7,11.38,77.37,32.05,20.67,20.67,32.05,48.14,32.05,77.37s-11.38,56.7-32.05,77.37c-20.67,20.67-48.14,32.05-77.37,32.05s-56.7-11.38-77.37-32.05c-20.67-20.67-32.05-48.14-32.05-77.37s11.38-56.7,32.05-77.37c20.67-20.67,48.14-32.05,77.37-32.05m0-6c-63.74,0-115.41,51.67-115.41,115.41s51.67,115.41,115.41,115.41,115.41-51.67,115.41-115.41S784.8,0,721.06,0h0Z"/>
    <g>
      <path class="cls-1" d="M267.98,132.82c-9.6,0-17.41-7.81-17.41-17.41s7.81-17.41,17.41-17.41,17.41,7.81,17.41,17.41-7.81,17.41-17.41,17.41Z"/>
      <path class="cls-2" d="M267.98,100c8.5,0,15.41,6.91,15.41,15.41s-6.91,15.41-15.41,15.41-15.41-6.91-15.41-15.41,6.91-15.41,15.41-15.41m0-4c-10.72,0-19.41,8.69-19.41,19.41s8.69,19.41,19.41,19.41,19.41-8.69,19.41-19.41-8.69-19.41-19.41-19.41h0Z"/>
    </g>
    <g>
      <path class="cls-4" d="M265.57,121.27l-2.3-3.3c-.1,.01-.24,.02-.43,.02h-2.54v3.28h-2.09v-11.26h4.63c.98,0,1.83,.16,2.55,.48,.72,.32,1.28,.78,1.67,1.38,.39,.6,.58,1.31,.58,2.14s-.21,1.58-.62,2.19c-.41,.61-1.01,1.07-1.78,1.37l2.59,3.7h-2.25Zm-.76-8.91c-.47-.39-1.16-.58-2.08-.58h-2.45v4.49h2.45c.91,0,1.6-.2,2.08-.59,.47-.39,.71-.95,.71-1.67s-.24-1.27-.71-1.66Z"/>
      <path class="cls-4" d="M277.05,120.3c-.64,.61-1.56,.97-2.78,1.1v1.8h-1.32v-1.79c-.79-.05-1.54-.2-2.25-.43s-1.27-.54-1.69-.9l.72-1.63c.4,.32,.88,.59,1.45,.81,.57,.22,1.16,.36,1.77,.41v-3.22c-.76-.18-1.4-.38-1.91-.6-.51-.22-.94-.54-1.28-.97s-.51-.98-.51-1.68c0-.87,.32-1.61,.95-2.22,.63-.61,1.55-.98,2.75-1.09v-1.82h1.32v1.79c.6,.03,1.19,.13,1.76,.31,.57,.17,1.08,.4,1.5,.68l-.66,1.62c-.82-.47-1.68-.76-2.61-.87v3.25c.77,.18,1.41,.38,1.92,.6,.51,.21,.94,.53,1.29,.96,.35,.42,.52,.98,.52,1.68,0,.87-.32,1.61-.96,2.21Zm-5.3-6.33c.28,.21,.68,.4,1.21,.55v-2.86c-.55,.09-.95,.26-1.22,.51-.27,.26-.4,.57-.4,.95,0,.35,.14,.64,.42,.85Zm3.79,5.18c.27-.25,.41-.55,.41-.92s-.14-.66-.43-.88c-.29-.22-.7-.4-1.24-.56v2.85c.57-.09,.99-.25,1.26-.5Z"/>
    </g>
    <g>
      <path class="cls-1" d="M569.04,132.82c-9.6,0-17.41-7.81-17.41-17.41s7.81-17.41,17.41-17.41,17.41,7.81,17.41,17.41-7.81,17.41-17.41,17.41Z"/>
      <path class="cls-2" d="M569.04,100c8.5,0,15.41,6.91,15.41,15.41s-6.91,15.41-15.41,15.41-15.41-6.91-15.41-15.41,6.91-15.41,15.41-15.41m0-4c-10.72,0-19.41,8.69-19.41,19.41s8.69,19.41,19.41,19.41,19.41-8.69,19.41-19.41-8.69-19.41-19.41-19.41h0Z"/>
    </g>
    <g>
      <path class="cls-4" d="M566.63,121.27l-2.3-3.3c-.1,.01-.24,.02-.43,.02h-2.54v3.28h-2.09v-11.26h4.63c.98,0,1.83,.16,2.55,.48,.72,.32,1.28,.78,1.67,1.38,.39,.6,.58,1.31,.58,2.14s-.21,1.58-.62,2.19c-.41,.61-1.01,1.07-1.78,1.37l2.59,3.7h-2.25Zm-.76-8.91c-.47-.39-1.16-.58-2.08-.58h-2.45v4.49h2.45c.91,0,1.6-.2,2.08-.59,.47-.39,.71-.95,.71-1.67s-.24-1.27-.71-1.66Z"/>
      <path class="cls-4" d="M578.11,120.3c-.64,.61-1.56,.97-2.78,1.1v1.8h-1.32v-1.79c-.79-.05-1.54-.2-2.25-.43s-1.27-.54-1.69-.9l.72-1.63c.4,.32,.88,.59,1.45,.81,.57,.22,1.16,.36,1.77,.41v-3.22c-.76-.18-1.4-.38-1.91-.6-.51-.22-.94-.54-1.28-.97s-.51-.98-.51-1.68c0-.87,.32-1.61,.95-2.22,.63-.61,1.55-.98,2.75-1.09v-1.82h1.32v1.79c.6,.03,1.19,.13,1.76,.31,.57,.17,1.08,.4,1.5,.68l-.66,1.62c-.82-.47-1.68-.76-2.61-.87v3.25c.77,.18,1.41,.38,1.92,.6,.51,.21,.94,.53,1.29,.96,.35,.42,.52,.98,.52,1.68,0,.87-.32,1.61-.96,2.21Zm-5.3-6.33c.28,.21,.68,.4,1.21,.55v-2.86c-.55,.09-.95,.26-1.22,.51-.27,.26-.4,.57-.4,.95,0,.35,.14,.64,.42,.85Zm3.79,5.18c.27-.25,.41-.55,.41-.92s-.14-.66-.43-.88c-.29-.22-.7-.4-1.24-.56v2.85c.57-.09,.99-.25,1.26-.5Z"/>
    </g>
    <g>
      <path class="cls-3" d="M110.57,276.71v7.67c0,7.81,6.39,14.2,14.2,14.2H711.62c7.81,0,14.2-6.39,14.2-14.2v-57.09"/>
      <polygon class="cls-2" points="110.57 257.65 99.6 284.51 110.57 278.14 121.55 284.51 110.57 257.65"/>
    </g>
    <g>
      <g>
        <path class="cls-1" d="M418.24,316.82c-9.6,0-17.41-7.81-17.41-17.41s7.81-17.41,17.41-17.41,17.41,7.81,17.41,17.41-7.81,17.41-17.41,17.41Z"/>
        <path class="cls-2" d="M418.24,284c8.5,0,15.41,6.91,15.41,15.41s-6.91,15.41-15.41,15.41-15.41-6.91-15.41-15.41,6.91-15.41,15.41-15.41m0-4c-10.72,0-19.41,8.69-19.41,19.41s8.69,19.41,19.41,19.41,19.41-8.69,19.41-19.41-8.69-19.41-19.41-19.41h0Z"/>
      </g>
      <g>
        <path class="cls-4" d="M415.82,305.27l-2.3-3.3c-.1,.01-.24,.02-.43,.02h-2.54v3.28h-2.09v-11.26h4.63c.98,0,1.83,.16,2.55,.48,.72,.32,1.28,.78,1.67,1.38,.39,.6,.58,1.31,.58,2.14s-.21,1.58-.62,2.19c-.41,.61-1.01,1.07-1.78,1.37l2.59,3.7h-2.25Zm-.76-8.91c-.47-.39-1.16-.58-2.08-.58h-2.45v4.49h2.45c.91,0,1.6-.2,2.08-.59,.47-.39,.71-.95,.71-1.67s-.24-1.27-.71-1.66Z"/>
        <path class="cls-4" d="M427.3,304.3c-.64,.61-1.56,.97-2.78,1.1v1.8h-1.32v-1.79c-.79-.05-1.54-.2-2.25-.43s-1.27-.54-1.69-.9l.72-1.63c.4,.32,.88,.59,1.45,.81,.57,.22,1.16,.36,1.77,.41v-3.22c-.76-.18-1.4-.38-1.91-.6-.51-.22-.94-.54-1.28-.97s-.51-.98-.51-1.68c0-.87,.32-1.61,.95-2.22,.63-.61,1.55-.98,2.75-1.09v-1.82h1.32v1.79c.6,.03,1.19,.13,1.76,.31,.57,.17,1.08,.4,1.5,.68l-.66,1.62c-.82-.47-1.68-.76-2.61-.87v3.25c.77,.18,1.41,.38,1.92,.6,.51,.21,.94,.53,1.29,.96,.35,.42,.52,.98,.52,1.68,0,.87-.32,1.61-.96,2.21Zm-5.3-6.33c.28,.21,.68,.4,1.21,.55v-2.86c-.55,.09-.95,.26-1.22,.51-.27,.26-.4,.57-.4,.95,0,.35,.14,.64,.42,.85Zm3.79,5.18c.27-.25,.41-.55,.41-.92s-.14-.66-.43-.88c-.29-.22-.7-.4-1.24-.56v2.85c.57-.09,.99-.25,1.26-.5Z"/>
      </g>
    </g>
  </g>
</svg>